<?xml version="1.0" encoding="UTF-8" standalone="no"?>
<!DOCTYPE svg PUBLIC "-//W3C//DTD SVG 1.1//EN" "http://www.w3.org/Graphics/SVG/1.1/DTD/svg11.dtd">
<!-- Generated by Microsoft Visio, SVG Export svg_1.svg Author resources -->
<svg xmlns="http://www.w3.org/2000/svg" xmlns:xlink="http://www.w3.org/1999/xlink" xmlns:ev="http://www.w3.org/2001/xml-events" width="11.6929in" height="8.26772in" viewBox="0 0 841.89 595.276" xml:space="preserve" color-interpolation-filters="sRGB" class="st16">
	<style type="text/css">
	<![CDATA[
		.st1 {stroke:#0070c0;stroke-linecap:round;stroke-linejoin:round;stroke-width:1.25}
		.st2 {fill:none;stroke:none;stroke-linecap:round;stroke-linejoin:round;stroke-width:0.75}
		.st3 {fill:#0070c0;font-family:Calibri;font-size:1.00001em}
		.st4 {fill:#000000;font-family:Calibri;font-size:1.00001em}
		.st5 {font-size:1em}
		.st6 {fill:#ffffff;stroke:#000000;stroke-linecap:round;stroke-linejoin:round;stroke-width:0.75;visibility:hidden}
		.st7 {fill:#f2f2f2;fill-opacity:0.6;stroke:none;stroke-linecap:round;stroke-linejoin:round;stroke-width:0.75;visibility:hidden}
		.st8 {fill:#8f8f8f;fill-opacity:0;stroke:none;stroke-linecap:butt;stroke-width:0.75}
		.st9 {fill:url(#grad10-63);stroke:none;stroke-linecap:butt;stroke-width:0.75}
		.st10 {fill:url(#grad7-71);stroke:none;stroke-linecap:butt;stroke-width:0.75}
		.st11 {fill:#333333;fill-opacity:0;stroke:none;stroke-linecap:butt;stroke-width:0.75}
		.st12 {stroke:#0070c0;stroke-linecap:round;stroke-linejoin:round;stroke-width:1}
		.st13 {fill:#ffffcc;stroke:#c00000;stroke-linecap:round;stroke-linejoin:round;stroke-width:1.5}
		.st14 {fill:#000000;font-family:Calibri;font-size:1.16666em;font-weight:bold}
		.st15 {font-size:1em;font-weight:normal}
		.st16 {fill:none;fill-rule:evenodd;font-size:12px;overflow:visible;stroke-linecap:square;stroke-miterlimit:3}
	]]>
	</style>

	<defs id="Patterns_And_Gradients">
		<pattern id="grad10-63" x="0" y="0" width="1" height="1" patternContentUnits="objectBoundingBox">
			<path d="M 0.5 0.5 L 0 0 L 0 1 z" style="fill:url(#grad0-64)"/>
			<path d="M 0.5 0.5 L 1 0 L 1 1 z" style="fill:url(#grad0-65)"/>
			<path d="M 0.5 0.5 L 0 0 L 1 0 z" style="fill:url(#grad0-66)"/>
			<path d="M 0.5 0.5 L 0 1 L 1 1 z" style="fill:url(#grad0-67)"/>
		</pattern>
		<linearGradient id="grad0-64" x1="0" y1="0" x2="1" y2="0" gradientTransform="rotate(180 0.5 0.5)">
			<stop offset="0" stop-color="#ffffff" stop-opacity="0"/>
			<stop offset="1" stop-color="#e6e6e6" stop-opacity="0"/>
		</linearGradient>
		<linearGradient id="grad0-65" x1="0" y1="0" x2="1" y2="0" gradientTransform="rotate(360 0.5 0.5)">
			<stop offset="0" stop-color="#ffffff" stop-opacity="0"/>
			<stop offset="1" stop-color="#e6e6e6" stop-opacity="0"/>
		</linearGradient>
		<linearGradient id="grad0-66" x1="0" y1="0" x2="1" y2="0" gradientTransform="rotate(270 0.5 0.5)">
			<stop offset="0" stop-color="#ffffff" stop-opacity="0"/>
			<stop offset="1" stop-color="#e6e6e6" stop-opacity="0"/>
		</linearGradient>
		<linearGradient id="grad0-67" x1="0" y1="0" x2="1" y2="0" gradientTransform="rotate(90 0.5 0.5)">
			<stop offset="0" stop-color="#ffffff" stop-opacity="0"/>
			<stop offset="1" stop-color="#e6e6e6" stop-opacity="0"/>
		</linearGradient>
		<radialGradient id="grad7-71" cx="0" cy="0" r="1.4">
			<stop offset="0" stop-color="#333333" stop-opacity="0"/>
			<stop offset="1" stop-color="#000000" stop-opacity="0"/>
		</radialGradient>
		<radialGradient id="grad6-85" cx="1" cy="0" r="1.4">
			<stop offset="0" stop-color="#cb2028" stop-opacity="1"/>
			<stop offset="1" stop-color="#ff4e3b" stop-opacity="1"/>
		</radialGradient>
	</defs>
	<g>
		<title>Author resources</title>
		<g id="shape1-1" transform="translate(63.1791,-436.255)">
			<title>Multi-tree square</title>
			<path d="M0 595.28 L44.76 595.28" class="st1"/>
			<path d="M44.76 595.28 L44.76 642.05 L125.54 642.05" class="st1"/>
			<path d="M44.76 595.28 L44.76 546.92 L135.47 546.92" class="st1"/>
			<path d="M44.76 595.28 L44.76 796.54 L129.8 796.54" class="st1"/>
			<path d="M44.76 595.28 L30.58 595.28" class="st1"/>
			<path d="M44.76 595.28 L30.58 595.28" class="st1"/>
			<path d="M44.76 595.28 L30.58 595.28" class="st1"/>
		</g>
		<g id="shape2-10" transform="translate(67.4583,-436.255)">
			<title>Sheet.2</title>
			<desc>/</desc>
			<rect x="0" y="575.276" width="40.4783" height="20" class="st2"/>
			<text x="17.92" y="588.88" class="st3">/</text>		</g>
		<g id="shape3-13" transform="translate(122.11,-484.608)">
			<title>Sheet.3</title>
			<desc>computable/</desc>
			<rect x="0" y="575.276" width="80.1634" height="20" class="st2"/>
			<text x="8.57" y="588.88" class="st3">computable/</text>		</g>
		<g id="shape4-16" transform="translate(170.299,-484.608)">
			<title>Double tree square</title>
			<path d="M0 595.28 L30.96 595.28" class="st1"/>
			<path d="M30.96 595.28 L30.96 606.21 L41.1 606.21" class="st1"/>
			<path d="M30.96 595.28 L30.96 558.59 L93.54 558.59" class="st1"/>
		</g>
		<g id="shape5-21" transform="translate(173.929,-518.583)">
			<title>Sheet.5</title>
			<desc>UML/</desc>
			<rect x="0" y="575.276" width="80.1634" height="20" class="st2"/>
			<text x="26.26" y="588.88" class="st3">UML/</text>		</g>
		<g id="shape6-24" transform="translate(126.986,-387.908)">
			<title>Sheet.6</title>
			<desc>resources/</desc>
			<rect x="0" y="575.276" width="80.1634" height="20" class="st2"/>
			<text x="14.06" y="588.88" class="st3">resources/</text>		</g>
		<g id="shape7-27" transform="translate(190.738,-444.601)">
			<title>Sheet.7</title>
			<desc>boilerplate/</desc>
			<rect x="0" y="575.276" width="80.1634" height="20" class="st2"/>
			<text x="11.22" y="588.88" class="st3">boilerplate/</text>		</g>
		<g id="shape8-30" transform="translate(160.378,-389.483)">
			<title>Multi-tree square.8</title>
			<path d="M0 595.28 L38.94 595.28" class="st1"/>
			<path d="M38.94 595.28 L38.94 619.51 L103.46 619.51" class="st1"/>
			<path d="M38.94 595.28 L38.94 540 L103.46 540" class="st1"/>
			<path d="M38.94 595.28 L38.94 676.06 L103.46 676.06" class="st1"/>
			<path d="M38.94 595.28 L24.77 595.28" class="st1"/>
			<path d="M38.94 595.28 L24.77 595.28" class="st1"/>
			<path d="M38.94 595.28 L24.77 595.28" class="st1"/>
		</g>
		<g id="shape9-39" transform="translate(206.364,-393.735)">
			<title>Sheet.9</title>
			<desc>xxxx.adoc (boilerplate asciidoc sources)</desc>
			<rect x="0" y="549.99" width="153.59" height="45.2858" class="st2"/>
			<text x="53.16" y="569.03" class="st4">xxxx.adoc <tspan x="5.91" dy="1.2em" class="st5">(</tspan>boilerplate asciidoc sources)</text>		</g>
		<g id="shape10-43" transform="translate(192.976,-365.388)">
			<title>Sheet.10</title>
			<desc>css/</desc>
			<rect x="0" y="575.276" width="38.6323" height="20" class="st2"/>
			<text x="9.77" y="588.88" class="st3">css/</text>		</g>
		<g id="shape11-46" transform="translate(235.496,-331.447)">
			<title>Sheet.11</title>
			<desc>HTML stylesheets</desc>
			<rect x="0" y="568.085" width="109.015" height="27.191" class="st2"/>
			<text x="11.58" y="585.28" class="st4">HTML stylesheets</text>		</g>
		<g id="group12-49" transform="translate(263.842,-350.929)">
			<title>Style sheet</title>
			<g id="shape12-50">
				<rect x="30.9235" y="575.759" width="7.88832" height="10.4" class="st6"/>
			</g>
			<g id="shape13-52" transform="translate(4.5469,0)">
				<title>Sheet.13</title>
				<rect x="0" y="566.643" width="24.086" height="28.6329" class="st2"/>
				<svg viewBox="0 0 22.48 26.16" clip="rect(1.84542 1.84543 1.84542 1.84543)" height="32.3237" overflow="hidden" preserveAspectRatio="none" width="27.7769" x="-1.84543" y="564.797">
					<defs>
						<path id="mfid1" d="M1.5,1.522 L1.5,24.646 L20.998,24.646 L20.998,6.387 C20.998,6.387 17.422,5.746 16.273,5.746 C16.248,4.945 16.265,5.006 16.156,1.521 L1.5,1.521 L1.5,1.522 Z"/>
					</defs>
					<g>
						<g text-rendering="geometricPrecision">
							<g fill="#5a5a5a">
								<use xlink:href="#mfid1" fill-rule="evenodd" stroke="none"/>
								<defs>
									<path id="mfid2" d="M2,2.022 L2,24.146 L20.498,24.146 L20.498,6.247 C20.498,6.247 16.228,5.538 16.119,2.022 L2,2.022 Z"/>
								</defs>
							</g>
							<g fill="#ffffff">
								<use xlink:href="#mfid2" fill-rule="evenodd" stroke="none"/>
							</g>
						</g>
					</g>
					<!-- GetDC -->
					<!-- Released DC -->
					<defs>
						<path id="mfid3" d="M16.217,1.5 L15.824,1.5 L15.824,6.872 L20.971,6.872 L20.971,6.331 L16.217,1.5 Z"/>
					</defs>
					<mask id="mfid4">
						<use xlink:href="#mfid3" fill-rule="evenodd" fill="white" stroke="none"/>
					</mask>
					<mask id="mfid5" fill="white" stroke="none">
						<g>
							<g mask="url(#mfid4)">
								<rect width="22.48" height="26.16" id="mfid6"/>
							</g>
						</g>
					</mask>
					<defs>
						<path id="mfid7" d="M-0.010417,-0.010417 L0.064031,-0.010417 L0.064031,0.066375 L-0.010417,0.066375 Z"/>
					</defs>
					<radialGradient id="mfid8">
						<stop offset="0" stop-color="#c6c6c6"/>
						<stop offset="1" stop-color="#606060"/>
					</radialGradient>
					<g mask="url(#mfid5)">
						<g text-rendering="geometricPrecision">
							<g transform="matrix(96, 0, 0, -96, 15.824, 6.872)">
								<g fill="white">
									<mask id="mfid9" x="-0.010417" y="-0.010417" width="0.074448" height="0.076792" maskUnits="userSpaceOnUse">
										<rect x="-0.010417" y="-0.010417" width="0.074448" height="0.076792" stroke="none"/>
									</mask>
									<use xlink:href="#mfid7" stroke="none" mask="url(#mfid9)" fill="url(#mfid8)"/>
									<defs>
										<path id="mfid10" d="M16.324,6.372 L20.307,6.372 L16.324,2.372 L16.324,6.372 Z"/>
									</defs>
								</g>
							</g>
						</g>
					</g>
					<g>
						<g text-rendering="geometricPrecision">
							<g fill="#ffffff">
								<use xlink:href="#mfid10" fill-rule="evenodd" stroke="none"/>
							</g>
						</g>
					</g>
					<!-- GetDC -->
					<!-- Released DC -->
					<defs>
						<path id="mfid11" d="M5.422,15.667 L16.565,15.667 L16.565,15.168 L5.422,15.168 L5.422,15.667 Z"/>
					</defs>
					<mask id="mfid12">
						<use xlink:href="#mfid11" fill-rule="evenodd" fill="white" stroke="none"/>
					</mask>
					<mask id="mfid13" fill="white" stroke="none">
						<g>
							<g mask="url(#mfid12)">
								<use xlink:href="#mfid6"/>
							</g>
						</g>
					</mask>
					<linearGradient id="mfid14" gradientUnits="userSpaceOnUse" x1="-0.010417" y1="0.002599" x2="0.12649" y2="0.002599" spreadMethod="repeat" gradientTransform="matrix(1, -0, -0, 1, -0.0000000061423, 0.00000000011276)">
						<stop offset="0" stop-color="#9aaab7"/>
						<stop offset="1" stop-color="#5084d1"/>
					</linearGradient>
					<g mask="url(#mfid13)">
						<g text-rendering="geometricPrecision">
							<g transform="matrix(96, 0, 0, -96, 5.422, 15.667)">
								<g fill="url(#mfid14)">
									<rect x="-0.010417" y="-0.010417" width="0.13691" height="0.026031" stroke="none"/>
								</g>
							</g>
						</g>
					</g>
					<!-- GetDC -->
					<!-- Released DC -->
					<defs>
						<path id="mfid15" d="M5.422,18.666 L16.565,18.666 L16.565,18.167 L5.422,18.167 L5.422,18.666 Z"/>
					</defs>
					<mask id="mfid16">
						<use xlink:href="#mfid15" fill-rule="evenodd" fill="white" stroke="none"/>
					</mask>
					<mask id="mfid17" fill="white" stroke="none">
						<g>
							<g mask="url(#mfid16)">
								<use xlink:href="#mfid6"/>
							</g>
						</g>
					</mask>
					<linearGradient id="mfid18" gradientUnits="userSpaceOnUse" x1="-0.010417" y1="0.002599" x2="0.12649" y2="0.002599" spreadMethod="repeat" gradientTransform="matrix(1, -0, -0, 1, -0.0000000061423, 0.00000000011276)">
						<stop offset="0" stop-color="#9aaab7"/>
						<stop offset="1" stop-color="#5084d1"/>
					</linearGradient>
					<g mask="url(#mfid17)">
						<g text-rendering="geometricPrecision">
							<g transform="matrix(96, 0, 0, -96, 5.422, 18.666)">
								<g fill="url(#mfid18)">
									<rect x="-0.010417" y="-0.010417" width="0.13691" height="0.026031" stroke="none"/>
								</g>
							</g>
						</g>
					</g>
					<!-- GetDC -->
					<!-- Released DC -->
					<defs>
						<path id="mfid19" d="M5.422,21.664 L16.565,21.664 L16.565,21.165 L5.422,21.165 L5.422,21.664 Z"/>
					</defs>
					<mask id="mfid20">
						<use xlink:href="#mfid19" fill-rule="evenodd" fill="white" stroke="none"/>
					</mask>
					<mask id="mfid21" fill="white" stroke="none">
						<g>
							<g mask="url(#mfid20)">
								<use xlink:href="#mfid6"/>
							</g>
						</g>
					</mask>
					<linearGradient id="mfid22" gradientUnits="userSpaceOnUse" x1="-0.010417" y1="0.002599" x2="0.12649" y2="0.002599" spreadMethod="repeat" gradientTransform="matrix(1, -0, -0, 1, -0.0000000061423, 0.00000000011276)">
						<stop offset="0" stop-color="#9aaab7"/>
						<stop offset="1" stop-color="#5084d1"/>
					</linearGradient>
					<g mask="url(#mfid21)">
						<g text-rendering="geometricPrecision">
							<g transform="matrix(96, 0, 0, -96, 5.422, 21.664)">
								<g fill="url(#mfid22)">
									<rect x="-0.010417" y="-0.010417" width="0.13691" height="0.026031" stroke="none"/>
									<defs>
										<path id="mfid23" d="M5.457,10.093 L9.645,7.936 L9.645,8.559 L6.115,10.331 L6.115,10.351 L9.644,12.111 L9.644,12.732 L5.456,10.582 L5.456,10.093 L5.457,10.093 Z"/>
									</defs>
								</g>
							</g>
						</g>
					</g>
					<g>
						<g text-rendering="geometricPrecision">
							<g fill="#737a7f">
								<use xlink:href="#mfid23" fill-rule="evenodd" stroke="none"/>
								<defs>
									<path id="mfid24" d="M17.145,10.581 L12.957,12.731 L12.957,12.11 L16.486,10.35 L16.486,10.33 L12.957,8.559 L12.957,7.936 L17.145,10.093 L17.145,10.581 Z"/>
								</defs>
								<use xlink:href="#mfid24" fill-rule="evenodd" stroke="none"/>
							</g>
						</g>
					</g>
				</svg>
				<rect x="0" y="566.643" width="24.086" height="28.6329" class="st2"/>
			</g>
			<g id="shape14-55">
				<title>Sheet.14</title>
				<rect x="0" y="566.643" width="28.6329" height="28.6329" class="st7"/>
			</g>
			<g id="group15-57" transform="translate(25.7696,-9.16253)">
				<title>Sheet.15</title>
				<g id="shape16-58">
					<title>Sheet.16</title>
					<rect x="0" y="584.968" width="10.3078" height="10.3078" class="st8"/>
				</g>
				<g id="shape17-60" transform="translate(0.555011,-0.554429)">
					<title>Sheet.17</title>
					<rect x="0" y="586.077" width="9.19899" height="9.19899" class="st9"/>
				</g>
				<g id="shape18-68" transform="translate(1.89425,-4.60298)">
					<title>Sheet.18</title>
					<rect x="0" y="594.174" width="6.51818" height="1.10188" class="st10"/>
				</g>
			</g>
			<g id="group19-72" transform="translate(25.7696,-9.16253)">
				<title>Sheet.19</title>
				<g id="shape20-73">
					<title>Sheet.20</title>
					<rect x="0" y="584.968" width="10.3078" height="10.3078" class="st8"/>
				</g>
				<g id="shape21-75" transform="translate(0.555011,-0.553847)">
					<title>Sheet.21</title>
					<rect x="0" y="586.077" width="9.19899" height="9.19899" class="st9"/>
				</g>
				<g id="shape22-78" transform="translate(4.60298,-1.89425)">
					<title>Sheet.22</title>
					<rect x="0" y="588.756" width="1.10188" height="6.51934" class="st11"/>
				</g>
				<g id="shape23-80" transform="translate(1.89425,-4.60298)">
					<title>Sheet.23</title>
					<rect x="0" y="594.174" width="6.51818" height="1.10188" class="st11"/>
				</g>
			</g>
			<g id="shape24-82" transform="translate(-3.57911,3.57911)">
				<title>Sheet.24</title>
			</g>
		</g>
		<g id="shape25-86" transform="translate(199.698,-308.695)">
			<title>Sheet.25</title>
			<desc>images/</desc>
			<rect x="0" y="575.276" width="49.9709" height="20" class="st2"/>
			<text x="5.47" y="588.88" class="st3">images/</text>		</g>
		<g id="group26-89" transform="translate(263.842,-298.512)">
			<title>Graphic (bitmap)</title>
			<g id="shape26-90">
				<rect x="29.3663" y="576.48" width="7.62879" height="10.4" class="st6"/>
			</g>
			<g id="shape27-92" transform="translate(4.63607,0)">
				<title>Sheet.27</title>
				<rect x="0" y="568.085" width="22.555" height="27.191" class="st2"/>
				<svg viewBox="0 0 21.08 24.8" clip="rect(1.86175 1.86184 1.86175 1.86184)" height="30.9145" overflow="hidden" preserveAspectRatio="none" width="26.2787" x="-1.86184" y="566.223">
					<!-- GetDC -->
					<!-- Released DC -->
					<defs>
						<path id="mfid25" d="M1.625,1.625 L1.625,6.081 C2.598,5.426 4.396,4.829 5.811,5.688 C8.7,7.443 7.707,8.287 7.707,8.287 C7.707,8.287 8.41,8.073 9.306,8.043 C9.432,6.472 10.733,5.23 12.34,5.23 C14.026,5.23 15.397,6.6 15.397,8.286 C15.397,8.741 15.292,9.168 15.114,9.556 C16.04,9.593 16.822,9.755 17.044,10.781 C17.183,11.418 13.343,11.385 12.151,11.865 C10.764,12.42 7.816,10.758 7.816,10.758 C7.816,10.758 4.926,12.123 2.538,11.473 C2.203,11.381 1.903,11.293 1.625,11.202 L1.625,23.17 L19.472,23.17 L19.472,1.625 L1.625,1.625 Z"/>
					</defs>
					<mask id="mfid26">
						<use xlink:href="#mfid25" fill-rule="evenodd" fill="white" stroke="none"/>
					</mask>
					<mask id="mfid27" fill="white" stroke="none">
						<g>
							<g mask="url(#mfid26)">
								<rect width="21.08" height="24.8" id="mfid28"/>
							</g>
						</g>
					</mask>
					<defs>
						<path id="mfid29" d="M-0.010417,-0.010417 L0.19632,-0.010417 L0.19632,0.23484 L-0.010417,0.23484 Z"/>
					</defs>
					<radialGradient id="mfid30">
						<stop offset="0" stop-color="#004ac0"/>
						<stop offset="1" stop-color="#cfe8f2"/>
					</radialGradient>
					<g mask="url(#mfid27)">
						<g text-rendering="geometricPrecision">
							<g transform="matrix(96, 0, 0, -96, 1.625, 23.17)">
								<g fill="white">
									<mask id="mfid31" x="-0.010417" y="-0.010417" width="0.20674" height="0.24526" maskUnits="userSpaceOnUse">
										<rect x="-0.010417" y="-0.010417" width="0.20674" height="0.24526" stroke="none"/>
									</mask>
									<use xlink:href="#mfid29" stroke="none" mask="url(#mfid31)" fill="url(#mfid30)"/>
								</g>
							</g>
						</g>
					</g>
					<!-- GetDC -->
					<!-- Released DC -->
					<defs>
						<path id="mfid32" d="M9.305,8.043 C9.298,8.125 9.28,8.203 9.28,8.285 C9.28,9.974 10.648,11.344 12.339,11.344 C13.571,11.344 14.629,10.608 15.112,9.555 C14.076,9.513 12.859,9.627 12.038,8.872 C11.266,8.161 10.19,8.013 9.305,8.043 Z"/>
					</defs>
					<mask id="mfid33">
						<use xlink:href="#mfid32" fill-rule="evenodd" fill="white" stroke="none"/>
					</mask>
					<mask id="mfid34" fill="white" stroke="none">
						<g>
							<g mask="url(#mfid33)">
								<use xlink:href="#mfid28"/>
							</g>
						</g>
					</mask>
					<defs>
						<path id="mfid35" d="M0.18654,-0.010417 C0.18654,0.032712 0.13489,0.067674 0.071167,0.067674 C0.0074461,0.067674 -0.04421,0.032712 -0.04421,-0.010417 C-0.04421,-0.053545 0.0074461,-0.088508 0.071167,-0.088508 C0.13489,-0.088508 0.18654,-0.053545 0.18654,-0.010417 Z"/>
					</defs>
					<radialGradient id="mfid36">
						<stop offset="0" stop-color="#c95757"/>
						<stop offset="0.70711" stop-color="#ffffff"/>
						<stop offset="1" stop-color="#ffffff"/>
					</radialGradient>
					<g mask="url(#mfid34)">
						<g text-rendering="geometricPrecision">
							<g transform="matrix(96, 0, 0, -96, 9.28, 11.344)">
								<g fill="white">
									<mask id="mfid37" x="-0.010417" y="-0.010417" width="0.081583" height="0.055219" maskUnits="userSpaceOnUse">
										<rect x="-0.010417" y="-0.010417" width="0.081583" height="0.055219" stroke="none"/>
									</mask>
									<use xlink:href="#mfid35" stroke="none" mask="url(#mfid37)" fill="url(#mfid36)"/>
								</g>
							</g>
						</g>
					</g>
					<!-- GetDC -->
					<!-- Released DC -->
					<defs>
						<path id="mfid38" d="M12.339,5.229 C10.732,5.229 9.431,6.471 9.305,8.042 C10.191,8.012 11.266,8.16 12.038,8.871 C12.859,9.626 14.076,9.512 15.112,9.554 C15.29,9.166 15.395,8.74 15.395,8.284 C15.396,6.6 14.024,5.229 12.339,5.229 Z"/>
					</defs>
					<mask id="mfid39">
						<use xlink:href="#mfid38" fill-rule="evenodd" fill="white" stroke="none"/>
					</mask>
					<mask id="mfid40" fill="white" stroke="none">
						<g>
							<g mask="url(#mfid39)">
								<use xlink:href="#mfid28"/>
							</g>
						</g>
					</mask>
					<defs>
						<path id="mfid41" d="M0.19303,-0.0096667 C0.19303,0.041793 0.13967,0.083509 0.073854,0.083509 C0.0080346,0.083509 -0.045323,0.041793 -0.045323,-0.0096667 C-0.045323,-0.061126 0.0080346,-0.10284 0.073854,-0.10284 C0.13967,-0.10284 0.19303,-0.061126 0.19303,-0.0096667 Z"/>
					</defs>
					<radialGradient id="mfid42">
						<stop offset="0" stop-color="#c95757"/>
						<stop offset="0.70711" stop-color="#ffffff"/>
						<stop offset="1" stop-color="#ffffff"/>
					</radialGradient>
					<g mask="url(#mfid40)">
						<g text-rendering="geometricPrecision">
							<g transform="matrix(96, 0, 0, -96, 9.305, 9.626)">
								<g fill="white">
									<mask id="mfid43" x="-0.010417" y="-0.0096667" width="0.084271" height="0.065885" maskUnits="userSpaceOnUse">
										<rect x="-0.010417" y="-0.0096667" width="0.084271" height="0.065885" stroke="none"/>
									</mask>
									<use xlink:href="#mfid41" stroke="none" mask="url(#mfid43)" fill="url(#mfid42)"/>
									<defs>
										<path id="mfid44" d="M9.03,8.285 C9.03,10.109 10.514,11.594 12.339,11.594 C14.162,11.594 15.646,10.11 15.646,8.285 C15.646,7.403 15.301,6.573 14.676,5.948 C14.051,5.324 13.221,4.979 12.339,4.979 C10.515,4.979 9.03,6.463 9.03,8.285 Z M9.53,8.285 C9.53,6.738 10.79,5.479 12.339,5.479 C13.088,5.479 13.792,5.771 14.322,6.301 C14.853,6.831 15.145,7.536 15.145,8.284 C15.145,9.833 13.886,11.093 12.338,11.093 C10.79,11.094 9.53,9.834 9.53,8.285 Z"/>
									</defs>
								</g>
							</g>
						</g>
					</g>
					<g>
						<g text-rendering="geometricPrecision">
							<g fill="#ffcc00">
								<use xlink:href="#mfid44" fill-rule="evenodd" stroke="none"/>
							</g>
						</g>
					</g>
					<!-- GetDC -->
					<!-- Released DC -->
					<defs>
						<path id="mfid45" d="M13.824,14.768 C11.678,14.831 11.43,16.493 8.97,15.61 C6.507,14.727 4.116,16.274 4.116,16.274 C3.503,15.022 2.577,14.2 1.625,13.651 L1.625,19.737 L19.474,19.737 L19.474,17.36 C16.433,17.624 15.724,14.712 13.824,14.768 Z"/>
					</defs>
					<mask id="mfid46">
						<use xlink:href="#mfid45" fill-rule="evenodd" fill="white" stroke="none"/>
					</mask>
					<mask id="mfid47" fill="white" stroke="none">
						<g>
							<g mask="url(#mfid46)">
								<use xlink:href="#mfid28"/>
							</g>
						</g>
					</mask>
					<linearGradient id="mfid48" gradientUnits="userSpaceOnUse" x1="-0.010417" y1="0.031698" x2="0.19634" y2="0.031698" spreadMethod="repeat" gradientTransform="matrix(-0.0000007207, 0.40738, -2.4547, -0.00000011057, 0.17077, -0.0061732)">
						<stop offset="0" stop-color="#1b4896"/>
						<stop offset="1" stop-color="#b5dceb"/>
					</linearGradient>
					<g mask="url(#mfid47)">
						<g text-rendering="geometricPrecision">
							<g transform="matrix(96, 0, 0, -96, 1.625, 19.737)">
								<g fill="url(#mfid48)">
									<rect x="-0.010417" y="-0.010417" width="0.20676" height="0.084229" stroke="none"/>
									<defs>
										<path id="mfid49" d="M16.98,17.55 C16.98,17.55 14.59,16.003 12.127,16.887 C9.664,17.77 8.809,19.545 6.665,19.483 C4.766,19.427 4.664,18.901 1.624,18.637 L1.624,21.591 C4.664,21.856 4.766,22.381 6.665,22.437 C8.81,22.5 9.665,20.723 12.128,19.84 C14.591,18.957 16.981,20.504 16.981,20.504 C17.596,19.253 18.521,18.43 19.472,17.881 L19.472,14.926 C18.521,15.477 17.596,16.299 16.98,17.55 Z"/>
									</defs>
								</g>
							</g>
						</g>
					</g>
					<g>
						<g text-rendering="geometricPrecision">
							<g fill="#499749">
								<use xlink:href="#mfid49" fill-rule="evenodd" stroke="none"/>
							</g>
						</g>
					</g>
					<!-- GetDC -->
					<!-- Released DC -->
					<defs>
						<path id="mfid50" d="M16.98,20.504 C16.98,20.504 14.59,18.957 12.127,19.84 C9.664,20.723 8.81,22.5 6.666,22.437 C4.767,22.381 4.665,21.856 1.625,21.591 L1.625,23.17 L19.472,23.17 L19.472,17.881 C18.521,18.43 17.596,19.253 16.98,20.504 Z"/>
					</defs>
					<mask id="mfid51">
						<use xlink:href="#mfid50" fill-rule="evenodd" fill="white" stroke="none"/>
					</mask>
					<mask id="mfid52" fill="white" stroke="none">
						<g>
							<g mask="url(#mfid51)">
								<use xlink:href="#mfid28"/>
							</g>
						</g>
					</mask>
					<linearGradient id="mfid53" gradientUnits="userSpaceOnUse" x1="-0.010417" y1="0.027547" x2="0.19632" y2="0.027547" spreadMethod="repeat">
						<stop offset="0" stop-color="#42bc33"/>
						<stop offset="1" stop-color="#bde1a1"/>
					</linearGradient>
					<g mask="url(#mfid52)">
						<g text-rendering="geometricPrecision">
							<g transform="matrix(96, 0, 0, -96, 1.625, 23.17)">
								<g fill="url(#mfid53)">
									<rect x="-0.010417" y="-0.010417" width="0.20674" height="0.075927" stroke="none"/>
								</g>
							</g>
						</g>
					</g>
					<!-- GetDC -->
					<!-- Released DC -->
					<defs>
						<path id="mfid54" d="M7.816,10.758 C7.816,10.758 10.763,12.42 12.149,11.863 C13.34,11.384 17.18,11.416 17.042,10.779 C16.571,8.607 13.594,10.302 12.038,8.872 C10.483,7.442 7.706,8.287 7.706,8.287 C7.706,8.287 8.699,7.443 5.81,5.688 C4.396,4.829 2.598,5.426 1.625,6.081 L1.625,11.202 C1.903,11.293 2.203,11.381 2.538,11.473 C4.927,12.123 7.816,10.758 7.816,10.758 Z"/>
					</defs>
					<mask id="mfid55">
						<use xlink:href="#mfid54" fill-rule="evenodd" fill="white" stroke="none"/>
					</mask>
					<mask id="mfid56" fill="white" stroke="none">
						<g>
							<g mask="url(#mfid55)">
								<use xlink:href="#mfid28"/>
							</g>
						</g>
					</mask>
					<linearGradient id="mfid57" gradientUnits="userSpaceOnUse" x1="-0.010417" y1="0.039544" x2="0.17101" y2="0.039544" spreadMethod="repeat" gradientTransform="matrix(-0.00000082133, 0.49929, -2.0028, -0.000000051406, 0.1595, -0.00054704)">
						<stop offset="0" stop-color="#23b3de"/>
						<stop offset="1" stop-color="#ffffff"/>
					</linearGradient>
					<g mask="url(#mfid56)">
						<g text-rendering="geometricPrecision">
							<g transform="matrix(96, 0, 0, -96, 1.625, 12.42)">
								<g fill="url(#mfid57)">
									<rect x="-0.010417" y="-0.005748" width="0.18143" height="0.090585" stroke="none"/>
									<defs>
										<path id="mfid58" d="M1.625,1.625 L1.625,23.17 L19.472,23.17 L19.472,1.625 L1.625,1.625 Z M9.004,8.061 C8.995,8.062 8.986,8.062 8.978,8.063 C8.986,8.062 8.995,8.062 9.004,8.061 Z"/>
									</defs>
								</g>
							</g>
						</g>
					</g>
					<g>
						<g text-rendering="geometricPrecision">
							<g fill="url(#mfid57)" stroke-width="0.25" stroke="#808284" stroke-miterlimit="2">
								<use xlink:href="#mfid58" fill="none"/>
							</g>
						</g>
					</g>
				</svg>
				<rect x="0" y="568.085" width="22.555" height="27.191" class="st2"/>
			</g>
			<g id="shape28-95">
				<title>Sheet.28</title>
				<rect x="0" y="568.085" width="27.191" height="27.191" class="st7"/>
			</g>
			<g id="group29-97" transform="translate(24.4719,-8.70113)">
				<title>Sheet.29</title>
				<g id="shape30-98">
					<title>Sheet.30</title>
					<rect x="0" y="585.487" width="9.78877" height="9.78877" class="st8"/>
				</g>
				<g id="shape31-100" transform="translate(0.527062,-0.52651)">
					<title>Sheet.31</title>
					<rect x="0" y="586.54" width="8.73575" height="8.73575" class="st9"/>
				</g>
				<g id="shape32-103" transform="translate(1.79886,-4.37119)">
					<title>Sheet.32</title>
					<rect x="0" y="594.229" width="6.18994" height="1.04639" class="st10"/>
				</g>
			</g>
			<g id="group33-106" transform="translate(24.4719,-8.70113)">
				<title>Sheet.33</title>
				<g id="shape34-107">
					<title>Sheet.34</title>
					<rect x="0" y="585.487" width="9.78877" height="9.78877" class="st8"/>
				</g>
				<g id="shape35-109" transform="translate(0.527062,-0.525957)">
					<title>Sheet.35</title>
					<rect x="0" y="586.54" width="8.73575" height="8.73575" class="st9"/>
				</g>
				<g id="shape36-112" transform="translate(4.37119,-1.79886)">
					<title>Sheet.36</title>
					<rect x="0" y="589.085" width="1.04639" height="6.19105" class="st11"/>
				</g>
				<g id="shape37-114" transform="translate(1.79886,-4.37119)">
					<title>Sheet.37</title>
					<rect x="0" y="594.229" width="6.18994" height="1.04639" class="st11"/>
				</g>
			</g>
			<g id="shape38-116" transform="translate(-3.39888,3.39888)">
				<title>Sheet.38</title>
			</g>
		</g>
		<g id="shape39-119" transform="translate(227.832,-271.025)">
			<title>Sheet.39</title>
			<desc>Standard images, e.g. header, footer</desc>
			<rect x="0" y="568.085" width="109.015" height="27.191" class="st2"/>
			<text x="12.39" y="578.08" class="st4">Standard images, <tspan x="8.97" dy="1.2em" class="st5">e</tspan>.g. header, footer</text>		</g>
		<g id="shape40-123" transform="translate(138.748,-235.118)">
			<title>Sheet.40</title>
			<desc>docs/</desc>
			<rect x="0" y="575.276" width="80.1634" height="20" class="st2"/>
			<text x="26.56" y="588.88" class="st3">docs/</text>		</g>
		<g id="shape41-126" transform="translate(144.116,-234.845)">
			<title>Multi-tree square.113</title>
			<path d="M0 595.28 L56.69 595.28" class="st12"/>
			<path d="M56.69 595.28 L56.69 713.9 L125.18 713.9" class="st12"/>
			<path d="M56.69 595.28 L56.69 586.06 L117.46 586.06" class="st12"/>
			<path d="M56.69 595.28 L56.69 595 L40.14 595" class="st12"/>
			<path d="M56.69 595.28 L56.69 773.43 L128.01 773.43" class="st12"/>
			<path d="M56.69 595.28 L42.52 595.28" class="st12"/>
			<path d="M56.69 595.28 L42.52 595.28" class="st12"/>
		</g>
		<g id="shape43-135" transform="translate(181.241,-241.77)">
			<title>Sheet.43</title>
			<desc>XXX/</desc>
			<rect x="0" y="575.276" width="80.1634" height="20" class="st2"/>
			<text x="28.42" y="588.88" class="st3">XXX/</text>		</g>
		<g id="shape76-138" transform="translate(184.252,-120.394)">
			<title>Sheet.76</title>
			<desc>etc</desc>
			<rect x="0" y="575.276" width="80.1634" height="20" class="st2"/>
			<text x="32.55" y="588.88" class="st3">etc</text>		</g>
		<g id="shape118-141" transform="translate(265.935,-431.165)">
			<title>Document.10</title>
			<path d="M13.6 568.08 L20.39 574.88 L13.6 574.88 L13.6 568.08 ZM0 568.08 L0 595.28 L20.39 595.28 L20.39 574.88 L13.6&#xA;						 574.88 L13.6 568.08 L0 568.08 Z" class="st13"/>
		</g>
		<g id="shape128-143" transform="translate(460.123,-462.317)">
			<title>Sheet.128</title>
			<desc>Author Resources: Once-off creation of document boilerplate, ...</desc>
			<rect x="0" y="526.396" width="240.602" height="68.8795" class="st2"/>
			<text x="4" y="539.84" class="st14">Author Resources: <tspan x="4" dy="1.2em" class="st15">Once</tspan><tspan class="st15">-</tspan><tspan class="st15">off creation of document </tspan><tspan x="4" dy="1.2em" class="st15">boilerplate</tspan><tspan class="st15">, </tspan><tspan class="st15">HTML styles</tspan><tspan class="st15">, </tspan><tspan class="st15">PDF theme</tspan><tspan class="st15">,</tspan><tspan x="4" dy="1.2em" class="st15">standard images etc</tspan></text>		</g>
		<g id="group133-156" transform="translate(145.511,-354.686)">
			<title>Document</title>
			<g id="shape133-157">
				<rect x="33.2923" y="574.662" width="8.28312" height="10.4" class="st6"/>
			</g>
			<g id="shape134-159" transform="translate(4.8952,0)">
				<title>Sheet.134</title>
				<rect x="0" y="564.449" width="25.931" height="30.8262" class="st2"/>
				<svg viewBox="0 0 22.48 26.16" clip="rect(1.98678 1.98679 1.98678 1.98679)" height="34.7998" overflow="hidden" preserveAspectRatio="none" width="29.9046" x="-1.98679" y="562.463">
					<defs>
						<path id="mfid59" d="M1.5,1.523 L1.5,24.646 L20.996,24.646 L20.996,6.388 C20.996,6.388 17.422,5.745 16.273,5.745 C16.248,4.944 16.265,5.005 16.156,1.522 L1.5,1.522 L1.5,1.523 Z"/>
					</defs>
					<g>
						<g text-rendering="geometricPrecision">
							<g fill="#5a5a5a">
								<use xlink:href="#mfid59" fill-rule="evenodd" stroke="none"/>
								<defs>
									<path id="mfid60" d="M2,2.023 L2,24.146 L20.496,24.146 L20.496,6.246 C20.496,6.246 16.228,5.537 16.117,2.023 L2,2.023 Z"/>
								</defs>
							</g>
							<g fill="#ffffff">
								<use xlink:href="#mfid60" fill-rule="evenodd" stroke="none"/>
							</g>
						</g>
					</g>
					<!-- GetDC -->
					<!-- Released DC -->
					<defs>
						<path id="mfid61" d="M16.216,1.5 L15.823,1.5 L15.823,6.871 L20.971,6.871 L20.971,6.332 L16.216,1.5 Z"/>
					</defs>
					<mask id="mfid62">
						<use xlink:href="#mfid61" fill-rule="evenodd" fill="white" stroke="none"/>
					</mask>
					<mask id="mfid63" fill="white" stroke="none">
						<g>
							<g mask="url(#mfid62)">
								<rect width="22.48" height="26.16" id="mfid64"/>
							</g>
						</g>
					</mask>
					<defs>
						<path id="mfid65" d="M-0.010417,-0.010417 L0.064042,-0.010417 L0.064042,0.066365 L-0.010417,0.066365 Z"/>
					</defs>
					<radialGradient id="mfid66">
						<stop offset="0" stop-color="#c6c6c6"/>
						<stop offset="1" stop-color="#606060"/>
					</radialGradient>
					<g mask="url(#mfid63)">
						<g text-rendering="geometricPrecision">
							<g transform="matrix(96, 0, 0, -96, 15.823, 6.871)">
								<g fill="white">
									<mask id="mfid67" x="-0.010417" y="-0.010417" width="0.074458" height="0.076781" maskUnits="userSpaceOnUse">
										<rect x="-0.010417" y="-0.010417" width="0.074458" height="0.076781" stroke="none"/>
									</mask>
									<use xlink:href="#mfid65" stroke="none" mask="url(#mfid67)" fill="url(#mfid66)"/>
									<defs>
										<path id="mfid68" d="M16.323,6.371 L20.305,6.371 L16.323,2.371 L16.323,6.371 Z"/>
									</defs>
								</g>
							</g>
						</g>
					</g>
					<g>
						<g text-rendering="geometricPrecision">
							<g fill="#ffffff">
								<use xlink:href="#mfid68" fill-rule="evenodd" stroke="none"/>
							</g>
						</g>
					</g>
					<!-- GetDC -->
					<!-- Released DC -->
					<defs>
						<path id="mfid69" d="M5.752,8.218 L13.088,8.218 L13.088,7.72 L5.752,7.72 L5.752,8.218 Z"/>
					</defs>
					<mask id="mfid70">
						<use xlink:href="#mfid69" fill-rule="evenodd" fill="white" stroke="none"/>
					</mask>
					<mask id="mfid71" fill="white" stroke="none">
						<g>
							<g mask="url(#mfid70)">
								<use xlink:href="#mfid64"/>
							</g>
						</g>
					</mask>
					<linearGradient id="mfid72" gradientUnits="userSpaceOnUse" x1="-0.010417" y1="0.0025938" x2="0.086833" y2="0.0025938" spreadMethod="repeat" gradientTransform="matrix(1, -0, -0, 1, -0.0000000017855, -0.0000000010499)">
						<stop offset="0" stop-color="#9aaab7"/>
						<stop offset="1" stop-color="#5084d1"/>
					</linearGradient>
					<g mask="url(#mfid71)">
						<g text-rendering="geometricPrecision">
							<g transform="matrix(96, 0, 0, -96, 5.752, 8.218)">
								<g fill="url(#mfid72)">
									<rect x="-0.010417" y="-0.010417" width="0.09725" height="0.026021" stroke="none"/>
								</g>
							</g>
						</g>
					</g>
					<!-- GetDC -->
					<!-- Released DC -->
					<defs>
						<path id="mfid73" d="M5.752,11.216 L16.895,11.216 L16.895,10.718 L5.752,10.718 L5.752,11.216 Z"/>
					</defs>
					<mask id="mfid74">
						<use xlink:href="#mfid73" fill-rule="evenodd" fill="white" stroke="none"/>
					</mask>
					<mask id="mfid75" fill="white" stroke="none">
						<g>
							<g mask="url(#mfid74)">
								<use xlink:href="#mfid64"/>
							</g>
						</g>
					</mask>
					<linearGradient id="mfid76" gradientUnits="userSpaceOnUse" x1="-0.010417" y1="0.0025938" x2="0.12649" y2="0.0025938" spreadMethod="repeat" gradientTransform="matrix(1, -0, -0, 1, -0.0000000036779, 0.00000000035934)">
						<stop offset="0" stop-color="#9aaab7"/>
						<stop offset="1" stop-color="#5084d1"/>
					</linearGradient>
					<g mask="url(#mfid75)">
						<g text-rendering="geometricPrecision">
							<g transform="matrix(96, 0, 0, -96, 5.752, 11.216)">
								<g fill="url(#mfid76)">
									<rect x="-0.010417" y="-0.010417" width="0.13691" height="0.026021" stroke="none"/>
								</g>
							</g>
						</g>
					</g>
					<!-- GetDC -->
					<!-- Released DC -->
					<defs>
						<path id="mfid77" d="M5.752,14.214 L16.895,14.214 L16.895,13.716 L5.752,13.716 L5.752,14.214 Z"/>
					</defs>
					<mask id="mfid78">
						<use xlink:href="#mfid77" fill-rule="evenodd" fill="white" stroke="none"/>
					</mask>
					<mask id="mfid79" fill="white" stroke="none">
						<g>
							<g mask="url(#mfid78)">
								<use xlink:href="#mfid64"/>
							</g>
						</g>
					</mask>
					<linearGradient id="mfid80" gradientUnits="userSpaceOnUse" x1="-0.010417" y1="0.0025938" x2="0.12649" y2="0.0025938" spreadMethod="repeat" gradientTransform="matrix(1, -0, -0, 1, -0.0000000036779, 0.00000000035934)">
						<stop offset="0" stop-color="#9aaab7"/>
						<stop offset="1" stop-color="#5084d1"/>
					</linearGradient>
					<g mask="url(#mfid79)">
						<g text-rendering="geometricPrecision">
							<g transform="matrix(96, 0, 0, -96, 5.752, 14.214)">
								<g fill="url(#mfid80)">
									<rect x="-0.010417" y="-0.010417" width="0.13691" height="0.026021" stroke="none"/>
								</g>
							</g>
						</g>
					</g>
					<!-- GetDC -->
					<!-- Released DC -->
					<defs>
						<path id="mfid81" d="M5.752,17.212 L16.895,17.212 L16.895,16.714 L5.752,16.714 L5.752,17.212 Z"/>
					</defs>
					<mask id="mfid82">
						<use xlink:href="#mfid81" fill-rule="evenodd" fill="white" stroke="none"/>
					</mask>
					<mask id="mfid83" fill="white" stroke="none">
						<g>
							<g mask="url(#mfid82)">
								<use xlink:href="#mfid64"/>
							</g>
						</g>
					</mask>
					<linearGradient id="mfid84" gradientUnits="userSpaceOnUse" x1="-0.010417" y1="0.0025938" x2="0.12649" y2="0.0025938" spreadMethod="repeat" gradientTransform="matrix(1, -0, -0, 1, -0.0000000036779, 0.00000000035934)">
						<stop offset="0" stop-color="#9aaab7"/>
						<stop offset="1" stop-color="#5084d1"/>
					</linearGradient>
					<g mask="url(#mfid83)">
						<g text-rendering="geometricPrecision">
							<g transform="matrix(96, 0, 0, -96, 5.752, 17.212)">
								<g fill="url(#mfid84)">
									<rect x="-0.010417" y="-0.010417" width="0.13691" height="0.026021" stroke="none"/>
								</g>
							</g>
						</g>
					</g>
					<!-- GetDC -->
					<!-- Released DC -->
					<defs>
						<path id="mfid85" d="M5.752,20.21 L16.895,20.21 L16.895,19.712 L5.752,19.712 L5.752,20.21 Z"/>
					</defs>
					<mask id="mfid86">
						<use xlink:href="#mfid85" fill-rule="evenodd" fill="white" stroke="none"/>
					</mask>
					<mask id="mfid87" fill="white" stroke="none">
						<g>
							<g mask="url(#mfid86)">
								<use xlink:href="#mfid64"/>
							</g>
						</g>
					</mask>
					<linearGradient id="mfid88" gradientUnits="userSpaceOnUse" x1="-0.010417" y1="0.0025938" x2="0.12649" y2="0.0025938" spreadMethod="repeat" gradientTransform="matrix(1, -0, -0, 1, -0.0000000036779, 0.00000000035934)">
						<stop offset="0" stop-color="#9aaab7"/>
						<stop offset="1" stop-color="#5084d1"/>
					</linearGradient>
					<g mask="url(#mfid87)">
						<g text-rendering="geometricPrecision">
							<g transform="matrix(96, 0, 0, -96, 5.752, 20.21)">
								<g fill="url(#mfid88)">
									<rect x="-0.010417" y="-0.010417" width="0.13691" height="0.026021" stroke="none"/>
								</g>
							</g>
						</g>
					</g>
				</svg>
				<rect x="0" y="564.449" width="25.931" height="30.8262" class="st2"/>
			</g>
			<g id="shape135-162">
				<title>Sheet.135</title>
				<rect x="0" y="564.449" width="30.8262" height="30.8262" class="st7"/>
			</g>
			<g id="group136-164" transform="translate(27.7436,-9.86439)">
				<title>Sheet.136</title>
				<g id="shape137-165">
					<title>Sheet.137</title>
					<rect x="0" y="584.178" width="11.0974" height="11.0974" class="st8"/>
				</g>
				<g id="shape138-167" transform="translate(0.597525,-0.596899)">
					<title>Sheet.138</title>
					<rect x="0" y="585.372" width="9.90364" height="9.90364" class="st9"/>
				</g>
				<g id="shape139-170" transform="translate(2.03935,-4.95558)">
					<title>Sheet.139</title>
					<rect x="0" y="594.089" width="7.01748" height="1.18628" class="st10"/>
				</g>
			</g>
			<g id="group140-173" transform="translate(27.7436,-9.86439)">
				<title>Sheet.140</title>
				<g id="shape141-174">
					<title>Sheet.141</title>
					<rect x="0" y="584.178" width="11.0974" height="11.0974" class="st8"/>
				</g>
				<g id="shape142-176" transform="translate(0.597525,-0.596273)">
					<title>Sheet.142</title>
					<rect x="0" y="585.372" width="9.90364" height="9.90364" class="st9"/>
				</g>
				<g id="shape143-179" transform="translate(4.95558,-2.03935)">
					<title>Sheet.143</title>
					<rect x="0" y="588.257" width="1.18628" height="7.01873" class="st11"/>
				</g>
				<g id="shape144-181" transform="translate(2.03935,-4.95558)">
					<title>Sheet.144</title>
					<rect x="0" y="594.089" width="7.01748" height="1.18628" class="st11"/>
				</g>
			</g>
			<g id="shape145-183" transform="translate(-3.85328,3.85328)">
				<title>Sheet.145</title>
			</g>
		</g>
		<g id="shape146-186" transform="translate(143.29,-306.142)">
			<title>Sheet.146</title>
			<desc>PDF theme file</desc>
			<rect x="0" y="549.99" width="43.797" height="45.2858" class="st2"/>
			<text x="12.35" y="561.83" class="st4">PDF<tspan x="5.97" dy="1.2em" class="st5">theme</tspan><tspan x="14.33" dy="1.2em" class="st5">file</tspan></text>		</g>
		<g id="shape147-191" transform="translate(184.252,-56.6929)">
			<title>Sheet.147</title>
			<desc>UML/</desc>
			<rect x="0" y="575.276" width="80.1634" height="20" class="st2"/>
			<text x="26.26" y="588.88" class="st3">UML/</text>		</g>
	</g>
</svg>
