<?xml version="1.0" encoding="UTF-8" standalone="no"?>
<!DOCTYPE svg PUBLIC "-//W3C//DTD SVG 1.1//EN" "http://www.w3.org/Graphics/SVG/1.1/DTD/svg11.dtd">
<!-- Generated by Microsoft Visio, SVG Export svg_1.svg Page-5 -->
<svg xmlns="http://www.w3.org/2000/svg" xmlns:xlink="http://www.w3.org/1999/xlink" xmlns:ev="http://www.w3.org/2001/xml-events" width="11.6929in" height="8.26772in" viewBox="0 0 841.89 595.276" xml:space="preserve" color-interpolation-filters="sRGB" class="st15">
	<style type="text/css">
	<![CDATA[
		.st1 {stroke:#0070c0;stroke-linecap:round;stroke-linejoin:round;stroke-width:1.25}
		.st2 {fill:none;stroke:none;stroke-linecap:round;stroke-linejoin:round;stroke-width:0.75}
		.st3 {fill:#0070c0;font-family:Calibri;font-size:1.00001em}
		.st4 {stroke:#0070c0;stroke-linecap:round;stroke-linejoin:round;stroke-width:1}
		.st5 {fill:#000000;font-family:Calibri;font-size:1.00001em;font-weight:bold}
		.st6 {fill:#ffffff;stroke:#000000;stroke-linecap:round;stroke-linejoin:round;stroke-width:0.75;visibility:hidden}
		.st7 {fill:#f2f2f2;fill-opacity:0.6;stroke:none;stroke-linecap:round;stroke-linejoin:round;stroke-width:0.75;visibility:hidden}
		.st8 {fill:#8f8f8f;fill-opacity:0;stroke:none;stroke-linecap:butt;stroke-width:0.75}
		.st9 {fill:url(#grad10-86);stroke:none;stroke-linecap:butt;stroke-width:0.75}
		.st10 {fill:url(#grad7-94);stroke:none;stroke-linecap:butt;stroke-width:0.75}
		.st11 {fill:#333333;fill-opacity:0;stroke:none;stroke-linecap:butt;stroke-width:0.75}
		.st12 {fill:#ffff00;stroke:#c00000;stroke-linecap:round;stroke-linejoin:round;stroke-width:1.5}
		.st13 {fill:#000000;font-family:Calibri;font-size:1.16666em;font-weight:bold}
		.st14 {font-size:1em;font-weight:normal}
		.st15 {fill:none;fill-rule:evenodd;font-size:12px;overflow:visible;stroke-linecap:square;stroke-miterlimit:3}
	]]>
	</style>

	<defs id="Patterns_And_Gradients">
		<pattern id="grad10-86" x="0" y="0" width="1" height="1" patternContentUnits="objectBoundingBox">
			<path d="M 0.5 0.5 L 0 0 L 0 1 z" style="fill:url(#grad0-87)"/>
			<path d="M 0.5 0.5 L 1 0 L 1 1 z" style="fill:url(#grad0-88)"/>
			<path d="M 0.5 0.5 L 0 0 L 1 0 z" style="fill:url(#grad0-89)"/>
			<path d="M 0.5 0.5 L 0 1 L 1 1 z" style="fill:url(#grad0-90)"/>
		</pattern>
		<linearGradient id="grad0-87" x1="0" y1="0" x2="1" y2="0" gradientTransform="rotate(180 0.5 0.5)">
			<stop offset="0" stop-color="#ffffff" stop-opacity="0"/>
			<stop offset="1" stop-color="#e6e6e6" stop-opacity="0"/>
		</linearGradient>
		<linearGradient id="grad0-88" x1="0" y1="0" x2="1" y2="0" gradientTransform="rotate(360 0.5 0.5)">
			<stop offset="0" stop-color="#ffffff" stop-opacity="0"/>
			<stop offset="1" stop-color="#e6e6e6" stop-opacity="0"/>
		</linearGradient>
		<linearGradient id="grad0-89" x1="0" y1="0" x2="1" y2="0" gradientTransform="rotate(270 0.5 0.5)">
			<stop offset="0" stop-color="#ffffff" stop-opacity="0"/>
			<stop offset="1" stop-color="#e6e6e6" stop-opacity="0"/>
		</linearGradient>
		<linearGradient id="grad0-90" x1="0" y1="0" x2="1" y2="0" gradientTransform="rotate(90 0.5 0.5)">
			<stop offset="0" stop-color="#ffffff" stop-opacity="0"/>
			<stop offset="1" stop-color="#e6e6e6" stop-opacity="0"/>
		</linearGradient>
		<radialGradient id="grad7-94" cx="0" cy="0" r="1.4">
			<stop offset="0" stop-color="#333333" stop-opacity="0"/>
			<stop offset="1" stop-color="#000000" stop-opacity="0"/>
		</radialGradient>
		<radialGradient id="grad6-108" cx="1" cy="0" r="1.4">
			<stop offset="0" stop-color="#cb2028" stop-opacity="1"/>
			<stop offset="1" stop-color="#ff4e3b" stop-opacity="1"/>
		</radialGradient>
	</defs>
	<g>
		<title>Doc Authoring</title>
		<g id="shape1-1" transform="translate(63.1791,-436.255)">
			<title>Multi-tree square</title>
			<path d="M0 595.28 L44.76 595.28" class="st1"/>
			<path d="M44.76 595.28 L44.76 642.05 L125.54 642.05" class="st1"/>
			<path d="M44.76 595.28 L44.76 546.92 L135.47 546.92" class="st1"/>
			<path d="M44.76 595.28 L44.76 796.54 L129.8 796.54" class="st1"/>
			<path d="M44.76 595.28 L30.58 595.28" class="st1"/>
			<path d="M44.76 595.28 L30.58 595.28" class="st1"/>
			<path d="M44.76 595.28 L30.58 595.28" class="st1"/>
		</g>
		<g id="shape2-10" transform="translate(67.4583,-436.255)">
			<title>Sheet.2</title>
			<desc>/</desc>
			<rect x="0" y="575.276" width="40.4783" height="20" class="st2"/>
			<text x="17.92" y="588.88" class="st3">/</text>		</g>
		<g id="shape3-13" transform="translate(122.11,-484.608)">
			<title>Sheet.3</title>
			<desc>computable/</desc>
			<rect x="0" y="575.276" width="80.1634" height="20" class="st2"/>
			<text x="8.57" y="588.88" class="st3">computable/</text>		</g>
		<g id="shape4-16" transform="translate(170.299,-484.608)">
			<title>Double tree square</title>
			<path d="M0 595.28 L30.96 595.28" class="st1"/>
			<path d="M30.96 595.28 L30.96 606.21 L41.1 606.21" class="st1"/>
			<path d="M30.96 595.28 L30.96 558.59 L93.54 558.59" class="st1"/>
		</g>
		<g id="shape6-21" transform="translate(126.986,-387.908)">
			<title>Sheet.6</title>
			<desc>resources/</desc>
			<rect x="0" y="575.276" width="80.1634" height="20" class="st2"/>
			<text x="14.06" y="588.88" class="st3">resources/</text>		</g>
		<g id="shape8-24" transform="translate(160.378,-389.483)">
			<title>Multi-tree square.8</title>
			<path d="M0 595.28 L38.94 595.28" class="st1"/>
			<path d="M38.94 595.28 L38.94 619.51 L103.46 619.51" class="st1"/>
			<path d="M38.94 595.28 L38.94 540 L103.46 540" class="st1"/>
			<path d="M38.94 595.28 L38.94 676.06 L103.46 676.06" class="st1"/>
			<path d="M38.94 595.28 L24.77 595.28" class="st1"/>
			<path d="M38.94 595.28 L24.77 595.28" class="st1"/>
			<path d="M38.94 595.28 L24.77 595.28" class="st1"/>
		</g>
		<g id="shape40-33" transform="translate(138.748,-235.118)">
			<title>Sheet.40</title>
			<desc>docs/</desc>
			<rect x="0" y="575.276" width="80.1634" height="20" class="st2"/>
			<text x="26.56" y="588.88" class="st3">docs/</text>		</g>
		<g id="shape41-36" transform="translate(144.116,-234.845)">
			<title>Multi-tree square.113</title>
			<path d="M0 595.28 L56.69 595.28" class="st4"/>
			<path d="M56.69 595.28 L56.69 773.43 L129.43 773.43" class="st4"/>
			<path d="M56.69 595.28 L56.69 586.06 L117.46 586.06" class="st4"/>
			<path d="M56.69 595.28 L56.69 595 L40.14 595" class="st4"/>
			<path d="M56.69 595.28 L42.52 595.28" class="st4"/>
			<path d="M56.69 595.28 L42.52 595.28" class="st4"/>
			<path d="M56.69 595.28 L42.52 595.28" class="st4"/>
		</g>
		<g id="shape42-45" transform="translate(243.78,-209.483)">
			<title>Sheet.42</title>
			<desc>master.adoc</desc>
			<rect x="0" y="561.253" width="74.7002" height="34.0225" class="st2"/>
			<text x="6.36" y="581.86" class="st5">master.adoc</text>		</g>
		<g id="shape43-48" transform="translate(181.241,-241.77)">
			<title>Sheet.43</title>
			<desc>XXX/</desc>
			<rect x="0" y="575.276" width="80.1634" height="20" class="st2"/>
			<text x="28.42" y="588.88" class="st3">XXX/</text>		</g>
		<g id="shape44-51" transform="translate(255.118,-244.066)">
			<title>Multi-tree square.129</title>
			<path d="M0 595.28 L63.41 595.28" class="st4"/>
			<path d="M63.41 595.28 L63.41 646.74 L147.33 646.74" class="st4"/>
			<path d="M63.41 595.28 L63.41 587.13 L145.62 587.13" class="st4"/>
			<path d="M63.41 595.28 L63.41 720.85 L146.83 720.85" class="st4"/>
			<path d="M63.41 595.28 L63.41 786.9 L147.4 786.9" class="st4"/>
			<path d="M63.41 595.28 L49.23 595.28" class="st4"/>
			<path d="M63.41 595.28 L49.23 595.28" class="st4"/>
		</g>
		<g id="shape45-60" transform="translate(300.076,-250.728)">
			<title>Sheet.45</title>
			<desc>classes/</desc>
			<rect x="0" y="575.276" width="80.1634" height="20" class="st2"/>
			<text x="20.95" y="588.88" class="st3">classes/</text>		</g>
		<g id="shape46-63" transform="translate(317.406,-192.598)">
			<title>Sheet.46</title>
			<desc>uml_diagrams/</desc>
			<rect x="0" y="575.276" width="85.0394" height="20" class="st2"/>
			<text x="5.56" y="588.88" class="st3">uml_diagrams/</text>		</g>
		<g id="shape47-66" transform="translate(306.216,-117.559)">
			<title>Sheet.47</title>
			<desc>diagrams/</desc>
			<rect x="0" y="575.276" width="80.1634" height="20" class="st2"/>
			<text x="15.43" y="588.88" class="st3">diagrams/</text>		</g>
		<g id="shape76-69" transform="translate(184.252,-56.6929)">
			<title>Sheet.76</title>
			<desc>etc</desc>
			<rect x="0" y="575.276" width="80.1634" height="20" class="st2"/>
			<text x="32.55" y="588.88" class="st3">etc</text>		</g>
		<g id="group77-72" transform="translate(404.21,-111.754)">
			<title>Graphic (vector).201</title>
			<g id="shape77-73">
				<rect x="35.1965" y="573.781" width="8.60049" height="10.4" class="st6"/>
			</g>
			<g id="shape78-75" transform="translate(5.17519,0)">
				<title>Sheet.78</title>
				<rect x="0" y="562.686" width="27.4142" height="32.5894" class="st2"/>
				<svg viewBox="0 0 22.48 26.16" clip="rect(2.10042 2.10043 2.10042 2.10043)" height="36.7902" overflow="hidden" preserveAspectRatio="none" width="31.6151" x="-2.10043" y="560.586">
					<defs>
						<path id="mfid89" d="M1.5,1.522 L1.5,24.646 L20.996,24.646 L20.996,6.388 C20.996,6.388 17.422,5.746 16.273,5.746 C16.248,4.945 16.265,5.006 16.156,1.522 L1.5,1.522 Z"/>
					</defs>
					<g>
						<g text-rendering="geometricPrecision">
							<g fill="#5a5a5a">
								<use xlink:href="#mfid89" fill-rule="evenodd" stroke="none"/>
								<defs>
									<path id="mfid90" d="M2,2.022 L2,24.146 L20.496,24.146 L20.496,6.246 C20.496,6.246 16.228,5.537 16.117,2.022 L2,2.022 Z"/>
								</defs>
							</g>
							<g fill="#ffffff">
								<use xlink:href="#mfid90" fill-rule="evenodd" stroke="none"/>
							</g>
						</g>
					</g>
					<!-- GetDC -->
					<!-- Released DC -->
					<defs>
						<path id="mfid91" d="M16.215,1.5 L15.822,1.5 L15.822,6.871 L20.971,6.871 L20.971,6.331 L16.215,1.5 Z"/>
					</defs>
					<mask id="mfid92">
						<use xlink:href="#mfid91" fill-rule="evenodd" fill="white" stroke="none"/>
					</mask>
					<mask id="mfid93" fill="white" stroke="none">
						<g>
							<g mask="url(#mfid92)">
								<rect width="22.48" height="26.16" id="mfid94"/>
							</g>
						</g>
					</mask>
					<defs>
						<path id="mfid95" d="M-0.010417,-0.010417 L0.064052,-0.010417 L0.064052,0.066365 L-0.010417,0.066365 Z"/>
					</defs>
					<radialGradient id="mfid96">
						<stop offset="0" stop-color="#c6c6c6"/>
						<stop offset="1" stop-color="#606060"/>
					</radialGradient>
					<g mask="url(#mfid93)">
						<g text-rendering="geometricPrecision">
							<g transform="matrix(96, 0, 0, -96, 15.822, 6.871)">
								<g fill="white">
									<mask id="mfid97" x="-0.010417" y="-0.010417" width="0.074469" height="0.076781" maskUnits="userSpaceOnUse">
										<rect x="-0.010417" y="-0.010417" width="0.074469" height="0.076781" stroke="none"/>
									</mask>
									<use xlink:href="#mfid95" stroke="none" mask="url(#mfid97)" fill="url(#mfid96)"/>
									<defs>
										<path id="mfid98" d="M16.322,6.371 L20.305,6.371 L16.322,2.371 L16.322,6.371 Z"/>
									</defs>
								</g>
							</g>
						</g>
					</g>
					<g>
						<g text-rendering="geometricPrecision">
							<g fill="#ffffff">
								<use xlink:href="#mfid98" fill-rule="evenodd" stroke="none"/>
							</g>
						</g>
					</g>
					<!-- GetDC -->
					<!-- Released DC -->
					<defs>
						<path id="mfid99" d="M16.214,16.476 C16.214,19.636 13.65,22.201 10.492,22.201 C7.33,22.201 4.766,19.637 4.766,16.476 C4.766,13.315 7.329,10.754 10.492,10.754 C13.649,10.754 16.214,13.314 16.214,16.476 Z"/>
					</defs>
					<mask id="mfid100">
						<use xlink:href="#mfid99" fill-rule="evenodd" fill="white" stroke="none"/>
					</mask>
					<mask id="mfid101" fill="white" stroke="none">
						<g>
							<g mask="url(#mfid100)">
								<use xlink:href="#mfid94"/>
							</g>
						</g>
					</mask>
					<defs>
						<path id="mfid102" d="M-0.010417,-0.010417 L0.12967,-0.010417 L0.12967,0.12966 L-0.010417,0.12966 Z"/>
					</defs>
					<radialGradient id="mfid103">
						<stop offset="0" stop-color="#086bc2"/>
						<stop offset="1" stop-color="#b5dceb"/>
					</radialGradient>
					<g mask="url(#mfid101)">
						<g text-rendering="geometricPrecision">
							<g transform="matrix(96, 0, 0, -96, 4.766, 22.201)">
								<g fill="white">
									<mask id="mfid104" x="-0.010417" y="-0.010417" width="0.14008" height="0.14007" maskUnits="userSpaceOnUse">
										<rect x="-0.010417" y="-0.010417" width="0.14008" height="0.14007" stroke="none"/>
									</mask>
									<use xlink:href="#mfid102" stroke="none" mask="url(#mfid104)" fill="url(#mfid103)"/>
									<defs>
										<path id="mfid105" d="M5.357,13.941 C6.293,12.051 8.24,10.753 10.492,10.753 C10.815,10.753 11.135,10.78 11.444,10.831"/>
									</defs>
								</g>
							</g>
						</g>
					</g>
					<g>
						<g text-rendering="geometricPrecision">
							<g fill="white" stroke-width="0.35" stroke="#231f20" stroke-miterlimit="2">
								<use xlink:href="#mfid105" fill="none"/>
								<defs>
									<path id="mfid106" d="M4.544,8.516 L18.582,12.445"/>
								</defs>
							</g>
							<g fill="white" stroke-width="0.35" stroke="#636466" stroke-miterlimit="2">
								<use xlink:href="#mfid106" fill="none"/>
							</g>
							<g fill="#231f20" stroke-width="0.35" stroke="#636466" stroke-miterlimit="2">
								<rect x="4.515" y="8.002" width="1.317" height="1.493" stroke="none"/>
								<defs>
									<path id="mfid107" d="M4.515,9.495 L5.832,9.495 L5.832,8.002 L4.515,8.002 L4.515,9.495 Z"/>
								</defs>
							</g>
							<g fill="#231f20" stroke-width="0.5735" stroke="#808284" stroke-miterlimit="2">
								<use xlink:href="#mfid107" fill="none"/>
							</g>
							<g fill="#000000" stroke-width="0.5735" stroke="#808284" stroke-miterlimit="2">
								<rect x="10.985" y="9.773" width="1.596" height="1.807" stroke="none"/>
								<rect x="4.31" y="12.776" width="1.595" height="1.807" stroke="none"/>
							</g>
							<g fill="#231f20" stroke-width="0.5735" stroke="#808284" stroke-miterlimit="2">
								<rect x="17.261" y="11.467" width="1.595" height="1.809" stroke="none"/>
								<defs>
									<path id="mfid108" d="M17.261,13.276 L18.856,13.276 L18.856,11.467 L17.261,11.467 L17.261,13.276 Z"/>
								</defs>
								<use xlink:href="#mfid108" fill="none"/>
							</g>
						</g>
					</g>
				</svg>
				<rect x="0" y="562.686" width="27.4142" height="32.5894" class="st2"/>
			</g>
			<g id="shape79-78">
				<title>Sheet.79</title>
				<rect x="0" y="562.686" width="32.5894" height="32.5894" class="st7"/>
			</g>
			<g id="group80-80" transform="translate(29.3304,-10.4286)">
				<title>Sheet.80</title>
				<g id="shape81-81">
					<title>Sheet.81</title>
					<rect x="0" y="583.543" width="11.7322" height="11.7322" class="st8"/>
				</g>
				<g id="shape82-83" transform="translate(0.631702,-0.63104)">
					<title>Sheet.82</title>
					<rect x="0" y="584.805" width="10.4701" height="10.4701" class="st9"/>
				</g>
				<g id="shape83-91" transform="translate(2.156,-5.23902)">
					<title>Sheet.83</title>
					<rect x="0" y="594.021" width="7.41886" height="1.25413" class="st10"/>
				</g>
			</g>
			<g id="group84-95" transform="translate(29.3304,-10.4286)">
				<title>Sheet.84</title>
				<g id="shape85-96">
					<title>Sheet.85</title>
					<rect x="0" y="583.543" width="11.7322" height="11.7322" class="st8"/>
				</g>
				<g id="shape86-98" transform="translate(0.631702,-0.630378)">
					<title>Sheet.86</title>
					<rect x="0" y="584.805" width="10.4701" height="10.4701" class="st9"/>
				</g>
				<g id="shape87-101" transform="translate(5.23902,-2.156)">
					<title>Sheet.87</title>
					<rect x="0" y="587.855" width="1.25413" height="7.42018" class="st11"/>
				</g>
				<g id="shape88-103" transform="translate(2.156,-5.23902)">
					<title>Sheet.88</title>
					<rect x="0" y="594.021" width="7.41886" height="1.25413" class="st11"/>
				</g>
			</g>
			<g id="shape89-105" transform="translate(-4.07367,4.07367)">
				<title>Sheet.89</title>
			</g>
		</g>
		<g id="group90-109" transform="translate(425.888,-102.977)">
			<title>Graphic (bitmap).214</title>
			<g id="shape90-110">
				<rect x="28.1218" y="577.056" width="7.42137" height="10.4" class="st6"/>
			</g>
			<g id="shape91-112" transform="translate(4.4396,0)">
				<title>Sheet.91</title>
				<rect x="0" y="569.237" width="21.5991" height="26.0387" class="st2"/>
				<svg viewBox="0 0 21.08 24.8" clip="rect(1.78286 1.78294 1.78286 1.78294)" height="29.6044" overflow="hidden" preserveAspectRatio="none" width="25.165" x="-1.78294" y="567.454">
					<!-- GetDC -->
					<!-- Released DC -->
					<defs>
						<path id="mfid109" d="M1.625,1.625 L1.625,6.081 C2.598,5.426 4.396,4.829 5.811,5.688 C8.7,7.443 7.707,8.287 7.707,8.287 C7.707,8.287 8.41,8.073 9.306,8.043 C9.432,6.472 10.733,5.23 12.34,5.23 C14.026,5.23 15.397,6.6 15.397,8.286 C15.397,8.741 15.292,9.168 15.114,9.556 C16.04,9.593 16.822,9.755 17.044,10.781 C17.183,11.418 13.343,11.385 12.151,11.865 C10.764,12.42 7.816,10.758 7.816,10.758 C7.816,10.758 4.926,12.123 2.538,11.473 C2.203,11.381 1.903,11.293 1.625,11.202 L1.625,23.17 L19.472,23.17 L19.472,1.625 L1.625,1.625 Z"/>
					</defs>
					<mask id="mfid110">
						<use xlink:href="#mfid109" fill-rule="evenodd" fill="white" stroke="none"/>
					</mask>
					<mask id="mfid111" fill="white" stroke="none">
						<g>
							<g mask="url(#mfid110)">
								<rect width="21.08" height="24.8" id="mfid112"/>
							</g>
						</g>
					</mask>
					<defs>
						<path id="mfid113" d="M-0.010417,-0.010417 L0.19632,-0.010417 L0.19632,0.23484 L-0.010417,0.23484 Z"/>
					</defs>
					<radialGradient id="mfid114">
						<stop offset="0" stop-color="#004ac0"/>
						<stop offset="1" stop-color="#cfe8f2"/>
					</radialGradient>
					<g mask="url(#mfid111)">
						<g text-rendering="geometricPrecision">
							<g transform="matrix(96, 0, 0, -96, 1.625, 23.17)">
								<g fill="white">
									<mask id="mfid115" x="-0.010417" y="-0.010417" width="0.20674" height="0.24526" maskUnits="userSpaceOnUse">
										<rect x="-0.010417" y="-0.010417" width="0.20674" height="0.24526" stroke="none"/>
									</mask>
									<use xlink:href="#mfid113" stroke="none" mask="url(#mfid115)" fill="url(#mfid114)"/>
								</g>
							</g>
						</g>
					</g>
					<!-- GetDC -->
					<!-- Released DC -->
					<defs>
						<path id="mfid116" d="M9.305,8.043 C9.298,8.125 9.28,8.203 9.28,8.285 C9.28,9.974 10.648,11.344 12.339,11.344 C13.571,11.344 14.629,10.608 15.112,9.555 C14.076,9.513 12.859,9.627 12.038,8.872 C11.266,8.161 10.19,8.013 9.305,8.043 Z"/>
					</defs>
					<mask id="mfid117">
						<use xlink:href="#mfid116" fill-rule="evenodd" fill="white" stroke="none"/>
					</mask>
					<mask id="mfid118" fill="white" stroke="none">
						<g>
							<g mask="url(#mfid117)">
								<use xlink:href="#mfid112"/>
							</g>
						</g>
					</mask>
					<defs>
						<path id="mfid119" d="M0.18654,-0.010417 C0.18654,0.032712 0.13489,0.067674 0.071167,0.067674 C0.0074461,0.067674 -0.04421,0.032712 -0.04421,-0.010417 C-0.04421,-0.053545 0.0074461,-0.088508 0.071167,-0.088508 C0.13489,-0.088508 0.18654,-0.053545 0.18654,-0.010417 Z"/>
					</defs>
					<radialGradient id="mfid120">
						<stop offset="0" stop-color="#c95757"/>
						<stop offset="0.70711" stop-color="#ffffff"/>
						<stop offset="1" stop-color="#ffffff"/>
					</radialGradient>
					<g mask="url(#mfid118)">
						<g text-rendering="geometricPrecision">
							<g transform="matrix(96, 0, 0, -96, 9.28, 11.344)">
								<g fill="white">
									<mask id="mfid121" x="-0.010417" y="-0.010417" width="0.081583" height="0.055219" maskUnits="userSpaceOnUse">
										<rect x="-0.010417" y="-0.010417" width="0.081583" height="0.055219" stroke="none"/>
									</mask>
									<use xlink:href="#mfid119" stroke="none" mask="url(#mfid121)" fill="url(#mfid120)"/>
								</g>
							</g>
						</g>
					</g>
					<!-- GetDC -->
					<!-- Released DC -->
					<defs>
						<path id="mfid122" d="M12.339,5.229 C10.732,5.229 9.431,6.471 9.305,8.042 C10.191,8.012 11.266,8.16 12.038,8.871 C12.859,9.626 14.076,9.512 15.112,9.554 C15.29,9.166 15.395,8.74 15.395,8.284 C15.396,6.6 14.024,5.229 12.339,5.229 Z"/>
					</defs>
					<mask id="mfid123">
						<use xlink:href="#mfid122" fill-rule="evenodd" fill="white" stroke="none"/>
					</mask>
					<mask id="mfid124" fill="white" stroke="none">
						<g>
							<g mask="url(#mfid123)">
								<use xlink:href="#mfid112"/>
							</g>
						</g>
					</mask>
					<defs>
						<path id="mfid125" d="M0.19303,-0.0096667 C0.19303,0.041793 0.13967,0.083509 0.073854,0.083509 C0.0080346,0.083509 -0.045323,0.041793 -0.045323,-0.0096667 C-0.045323,-0.061126 0.0080346,-0.10284 0.073854,-0.10284 C0.13967,-0.10284 0.19303,-0.061126 0.19303,-0.0096667 Z"/>
					</defs>
					<radialGradient id="mfid126">
						<stop offset="0" stop-color="#c95757"/>
						<stop offset="0.70711" stop-color="#ffffff"/>
						<stop offset="1" stop-color="#ffffff"/>
					</radialGradient>
					<g mask="url(#mfid124)">
						<g text-rendering="geometricPrecision">
							<g transform="matrix(96, 0, 0, -96, 9.305, 9.626)">
								<g fill="white">
									<mask id="mfid127" x="-0.010417" y="-0.0096667" width="0.084271" height="0.065885" maskUnits="userSpaceOnUse">
										<rect x="-0.010417" y="-0.0096667" width="0.084271" height="0.065885" stroke="none"/>
									</mask>
									<use xlink:href="#mfid125" stroke="none" mask="url(#mfid127)" fill="url(#mfid126)"/>
									<defs>
										<path id="mfid128" d="M9.03,8.285 C9.03,10.109 10.514,11.594 12.339,11.594 C14.162,11.594 15.646,10.11 15.646,8.285 C15.646,7.403 15.301,6.573 14.676,5.948 C14.051,5.324 13.221,4.979 12.339,4.979 C10.515,4.979 9.03,6.463 9.03,8.285 Z M9.53,8.285 C9.53,6.738 10.79,5.479 12.339,5.479 C13.088,5.479 13.792,5.771 14.322,6.301 C14.853,6.831 15.145,7.536 15.145,8.284 C15.145,9.833 13.886,11.093 12.338,11.093 C10.79,11.094 9.53,9.834 9.53,8.285 Z"/>
									</defs>
								</g>
							</g>
						</g>
					</g>
					<g>
						<g text-rendering="geometricPrecision">
							<g fill="#ffcc00">
								<use xlink:href="#mfid128" fill-rule="evenodd" stroke="none"/>
							</g>
						</g>
					</g>
					<!-- GetDC -->
					<!-- Released DC -->
					<defs>
						<path id="mfid129" d="M13.824,14.768 C11.678,14.831 11.43,16.493 8.97,15.61 C6.507,14.727 4.116,16.274 4.116,16.274 C3.503,15.022 2.577,14.2 1.625,13.651 L1.625,19.737 L19.474,19.737 L19.474,17.36 C16.433,17.624 15.724,14.712 13.824,14.768 Z"/>
					</defs>
					<mask id="mfid130">
						<use xlink:href="#mfid129" fill-rule="evenodd" fill="white" stroke="none"/>
					</mask>
					<mask id="mfid131" fill="white" stroke="none">
						<g>
							<g mask="url(#mfid130)">
								<use xlink:href="#mfid112"/>
							</g>
						</g>
					</mask>
					<linearGradient id="mfid132" gradientUnits="userSpaceOnUse" x1="-0.010417" y1="0.031698" x2="0.19634" y2="0.031698" spreadMethod="repeat" gradientTransform="matrix(-0.0000007207, 0.40738, -2.4547, -0.00000011057, 0.17077, -0.0061732)">
						<stop offset="0" stop-color="#1b4896"/>
						<stop offset="1" stop-color="#b5dceb"/>
					</linearGradient>
					<g mask="url(#mfid131)">
						<g text-rendering="geometricPrecision">
							<g transform="matrix(96, 0, 0, -96, 1.625, 19.737)">
								<g fill="url(#mfid132)">
									<rect x="-0.010417" y="-0.010417" width="0.20676" height="0.084229" stroke="none"/>
									<defs>
										<path id="mfid133" d="M16.98,17.55 C16.98,17.55 14.59,16.003 12.127,16.887 C9.664,17.77 8.809,19.545 6.665,19.483 C4.766,19.427 4.664,18.901 1.624,18.637 L1.624,21.591 C4.664,21.856 4.766,22.381 6.665,22.437 C8.81,22.5 9.665,20.723 12.128,19.84 C14.591,18.957 16.981,20.504 16.981,20.504 C17.596,19.253 18.521,18.43 19.472,17.881 L19.472,14.926 C18.521,15.477 17.596,16.299 16.98,17.55 Z"/>
									</defs>
								</g>
							</g>
						</g>
					</g>
					<g>
						<g text-rendering="geometricPrecision">
							<g fill="#499749">
								<use xlink:href="#mfid133" fill-rule="evenodd" stroke="none"/>
							</g>
						</g>
					</g>
					<!-- GetDC -->
					<!-- Released DC -->
					<defs>
						<path id="mfid134" d="M16.98,20.504 C16.98,20.504 14.59,18.957 12.127,19.84 C9.664,20.723 8.81,22.5 6.666,22.437 C4.767,22.381 4.665,21.856 1.625,21.591 L1.625,23.17 L19.472,23.17 L19.472,17.881 C18.521,18.43 17.596,19.253 16.98,20.504 Z"/>
					</defs>
					<mask id="mfid135">
						<use xlink:href="#mfid134" fill-rule="evenodd" fill="white" stroke="none"/>
					</mask>
					<mask id="mfid136" fill="white" stroke="none">
						<g>
							<g mask="url(#mfid135)">
								<use xlink:href="#mfid112"/>
							</g>
						</g>
					</mask>
					<linearGradient id="mfid137" gradientUnits="userSpaceOnUse" x1="-0.010417" y1="0.027547" x2="0.19632" y2="0.027547" spreadMethod="repeat">
						<stop offset="0" stop-color="#42bc33"/>
						<stop offset="1" stop-color="#bde1a1"/>
					</linearGradient>
					<g mask="url(#mfid136)">
						<g text-rendering="geometricPrecision">
							<g transform="matrix(96, 0, 0, -96, 1.625, 23.17)">
								<g fill="url(#mfid137)">
									<rect x="-0.010417" y="-0.010417" width="0.20674" height="0.075927" stroke="none"/>
								</g>
							</g>
						</g>
					</g>
					<!-- GetDC -->
					<!-- Released DC -->
					<defs>
						<path id="mfid138" d="M7.816,10.758 C7.816,10.758 10.763,12.42 12.149,11.863 C13.34,11.384 17.18,11.416 17.042,10.779 C16.571,8.607 13.594,10.302 12.038,8.872 C10.483,7.442 7.706,8.287 7.706,8.287 C7.706,8.287 8.699,7.443 5.81,5.688 C4.396,4.829 2.598,5.426 1.625,6.081 L1.625,11.202 C1.903,11.293 2.203,11.381 2.538,11.473 C4.927,12.123 7.816,10.758 7.816,10.758 Z"/>
					</defs>
					<mask id="mfid139">
						<use xlink:href="#mfid138" fill-rule="evenodd" fill="white" stroke="none"/>
					</mask>
					<mask id="mfid140" fill="white" stroke="none">
						<g>
							<g mask="url(#mfid139)">
								<use xlink:href="#mfid112"/>
							</g>
						</g>
					</mask>
					<linearGradient id="mfid141" gradientUnits="userSpaceOnUse" x1="-0.010417" y1="0.039544" x2="0.17101" y2="0.039544" spreadMethod="repeat" gradientTransform="matrix(-0.00000082133, 0.49929, -2.0028, -0.000000051406, 0.1595, -0.00054704)">
						<stop offset="0" stop-color="#23b3de"/>
						<stop offset="1" stop-color="#ffffff"/>
					</linearGradient>
					<g mask="url(#mfid140)">
						<g text-rendering="geometricPrecision">
							<g transform="matrix(96, 0, 0, -96, 1.625, 12.42)">
								<g fill="url(#mfid141)">
									<rect x="-0.010417" y="-0.005748" width="0.18143" height="0.090585" stroke="none"/>
									<defs>
										<path id="mfid142" d="M1.625,1.625 L1.625,23.17 L19.472,23.17 L19.472,1.625 L1.625,1.625 Z M9.004,8.061 C8.995,8.062 8.986,8.062 8.978,8.063 C8.986,8.062 8.995,8.062 9.004,8.061 Z"/>
									</defs>
								</g>
							</g>
						</g>
					</g>
					<g>
						<g text-rendering="geometricPrecision">
							<g fill="url(#mfid141)" stroke-width="0.25" stroke="#808284" stroke-miterlimit="2">
								<use xlink:href="#mfid142" fill="none"/>
							</g>
						</g>
					</g>
				</svg>
				<rect x="0" y="569.237" width="21.5991" height="26.0387" class="st2"/>
			</g>
			<g id="shape92-115">
				<title>Sheet.92</title>
				<rect x="0" y="569.237" width="26.0387" height="26.0387" class="st7"/>
			</g>
			<g id="group93-117" transform="translate(23.4348,-8.33239)">
				<title>Sheet.93</title>
				<g id="shape94-118">
					<title>Sheet.94</title>
					<rect x="0" y="585.902" width="9.37394" height="9.37394" class="st8"/>
				</g>
				<g id="shape95-120" transform="translate(0.504726,-0.504197)">
					<title>Sheet.95</title>
					<rect x="0" y="586.91" width="8.36555" height="8.36555" class="st9"/>
				</g>
				<g id="shape96-123" transform="translate(1.72263,-4.18595)">
					<title>Sheet.96</title>
					<rect x="0" y="594.274" width="5.92762" height="1.00205" class="st10"/>
				</g>
			</g>
			<g id="group97-126" transform="translate(23.4348,-8.33239)">
				<title>Sheet.97</title>
				<g id="shape98-127">
					<title>Sheet.98</title>
					<rect x="0" y="585.902" width="9.37394" height="9.37394" class="st8"/>
				</g>
				<g id="shape99-129" transform="translate(0.504726,-0.503668)">
					<title>Sheet.99</title>
					<rect x="0" y="586.91" width="8.36555" height="8.36555" class="st9"/>
				</g>
				<g id="shape100-132" transform="translate(4.18595,-1.72263)">
					<title>Sheet.100</title>
					<rect x="0" y="589.347" width="1.00205" height="5.92868" class="st11"/>
				</g>
				<g id="shape101-134" transform="translate(1.72263,-4.18595)">
					<title>Sheet.101</title>
					<rect x="0" y="594.274" width="5.92762" height="1.00205" class="st11"/>
				</g>
			</g>
			<g id="shape102-136" transform="translate(-3.25484,3.25484)">
				<title>Sheet.102</title>
			</g>
		</g>
		<g id="shape103-139" transform="translate(396.85,-85.0394)">
			<title>Sheet.103</title>
			<desc>xxx.svg, xxx.png</desc>
			<rect x="0" y="575.276" width="93.6179" height="20" class="st2"/>
			<text x="6.8" y="588.88" class="st5">xxx.svg, xxx.png</text>		</g>
		<g id="shape104-142" transform="translate(302.514,-50.8661)">
			<title>Sheet.104</title>
			<desc>images/</desc>
			<rect x="0" y="575.276" width="80.1634" height="20" class="st2"/>
			<text x="20.56" y="588.88" class="st3">images/</text>		</g>
		<g id="shape119-145" transform="translate(269.291,-233.485)">
			<title>Document.244</title>
			<path d="M13.6 568.08 L20.39 574.88 L13.6 574.88 L13.6 568.08 ZM0 568.08 L0 595.28 L20.39 595.28 L20.39 574.88 L13.6&#xA;						 574.88 L13.6 568.08 L0 568.08 Z" class="st12"/>
		</g>
		<g id="shape128-147" transform="translate(460.123,-439.37)">
			<title>Sheet.128</title>
			<desc>Content Creation - documents Author source documents for each...</desc>
			<rect x="0" y="503.45" width="240.602" height="91.8261" class="st2"/>
			<text x="4" y="519.96" class="st13">Content Creation - documents<tspan x="4" dy="1.2em" class="st14">Author source documents for each </tspan><tspan x="4" dy="1.2em" class="st14">specification XXX in Asciidoc </tspan><tspan x="4" dy="1.2em" class="st14">source text</tspan><tspan class="st14">, </tspan><tspan class="st14">diagrams using normal </tspan><tspan x="4" dy="1.2em" class="st14">tools</tspan><tspan class="st14">, </tspan><tspan class="st14">screen shots etc</tspan></text>		</g>
		<g id="group132-158" transform="translate(407.425,-44.8274)">
			<title>Graphic (bitmap).229</title>
			<g id="shape132-159">
				<rect x="28.1218" y="577.056" width="7.42137" height="10.4" class="st6"/>
			</g>
			<g id="shape133-161" transform="translate(4.4396,0)">
				<title>Sheet.133</title>
				<rect x="0" y="569.237" width="21.5991" height="26.0387" class="st2"/>
				<svg viewBox="0 0 21.08 24.8" clip="rect(1.78286 1.78294 1.78286 1.78294)" height="29.6044" overflow="hidden" preserveAspectRatio="none" width="25.165" x="-1.78294" y="567.454">
					<!-- GetDC -->
					<!-- Released DC -->
					<defs>
						<path id="mfid143" d="M1.625,1.625 L1.625,6.081 C2.598,5.426 4.396,4.829 5.811,5.688 C8.7,7.443 7.707,8.287 7.707,8.287 C7.707,8.287 8.41,8.073 9.306,8.043 C9.432,6.472 10.733,5.23 12.34,5.23 C14.026,5.23 15.397,6.6 15.397,8.286 C15.397,8.741 15.292,9.168 15.114,9.556 C16.04,9.593 16.822,9.755 17.044,10.781 C17.183,11.418 13.343,11.385 12.151,11.865 C10.764,12.42 7.816,10.758 7.816,10.758 C7.816,10.758 4.926,12.123 2.538,11.473 C2.203,11.381 1.903,11.293 1.625,11.202 L1.625,23.17 L19.472,23.17 L19.472,1.625 L1.625,1.625 Z"/>
					</defs>
					<mask id="mfid144">
						<use xlink:href="#mfid143" fill-rule="evenodd" fill="white" stroke="none"/>
					</mask>
					<mask id="mfid145" fill="white" stroke="none">
						<g>
							<g mask="url(#mfid144)">
								<rect width="21.08" height="24.8" id="mfid146"/>
							</g>
						</g>
					</mask>
					<defs>
						<path id="mfid147" d="M-0.010417,-0.010417 L0.19632,-0.010417 L0.19632,0.23484 L-0.010417,0.23484 Z"/>
					</defs>
					<radialGradient id="mfid148">
						<stop offset="0" stop-color="#004ac0"/>
						<stop offset="1" stop-color="#cfe8f2"/>
					</radialGradient>
					<g mask="url(#mfid145)">
						<g text-rendering="geometricPrecision">
							<g transform="matrix(96, 0, 0, -96, 1.625, 23.17)">
								<g fill="white">
									<mask id="mfid149" x="-0.010417" y="-0.010417" width="0.20674" height="0.24526" maskUnits="userSpaceOnUse">
										<rect x="-0.010417" y="-0.010417" width="0.20674" height="0.24526" stroke="none"/>
									</mask>
									<use xlink:href="#mfid147" stroke="none" mask="url(#mfid149)" fill="url(#mfid148)"/>
								</g>
							</g>
						</g>
					</g>
					<!-- GetDC -->
					<!-- Released DC -->
					<defs>
						<path id="mfid150" d="M9.305,8.043 C9.298,8.125 9.28,8.203 9.28,8.285 C9.28,9.974 10.648,11.344 12.339,11.344 C13.571,11.344 14.629,10.608 15.112,9.555 C14.076,9.513 12.859,9.627 12.038,8.872 C11.266,8.161 10.19,8.013 9.305,8.043 Z"/>
					</defs>
					<mask id="mfid151">
						<use xlink:href="#mfid150" fill-rule="evenodd" fill="white" stroke="none"/>
					</mask>
					<mask id="mfid152" fill="white" stroke="none">
						<g>
							<g mask="url(#mfid151)">
								<use xlink:href="#mfid146"/>
							</g>
						</g>
					</mask>
					<defs>
						<path id="mfid153" d="M0.18654,-0.010417 C0.18654,0.032712 0.13489,0.067674 0.071167,0.067674 C0.0074461,0.067674 -0.04421,0.032712 -0.04421,-0.010417 C-0.04421,-0.053545 0.0074461,-0.088508 0.071167,-0.088508 C0.13489,-0.088508 0.18654,-0.053545 0.18654,-0.010417 Z"/>
					</defs>
					<radialGradient id="mfid154">
						<stop offset="0" stop-color="#c95757"/>
						<stop offset="0.70711" stop-color="#ffffff"/>
						<stop offset="1" stop-color="#ffffff"/>
					</radialGradient>
					<g mask="url(#mfid152)">
						<g text-rendering="geometricPrecision">
							<g transform="matrix(96, 0, 0, -96, 9.28, 11.344)">
								<g fill="white">
									<mask id="mfid155" x="-0.010417" y="-0.010417" width="0.081583" height="0.055219" maskUnits="userSpaceOnUse">
										<rect x="-0.010417" y="-0.010417" width="0.081583" height="0.055219" stroke="none"/>
									</mask>
									<use xlink:href="#mfid153" stroke="none" mask="url(#mfid155)" fill="url(#mfid154)"/>
								</g>
							</g>
						</g>
					</g>
					<!-- GetDC -->
					<!-- Released DC -->
					<defs>
						<path id="mfid156" d="M12.339,5.229 C10.732,5.229 9.431,6.471 9.305,8.042 C10.191,8.012 11.266,8.16 12.038,8.871 C12.859,9.626 14.076,9.512 15.112,9.554 C15.29,9.166 15.395,8.74 15.395,8.284 C15.396,6.6 14.024,5.229 12.339,5.229 Z"/>
					</defs>
					<mask id="mfid157">
						<use xlink:href="#mfid156" fill-rule="evenodd" fill="white" stroke="none"/>
					</mask>
					<mask id="mfid158" fill="white" stroke="none">
						<g>
							<g mask="url(#mfid157)">
								<use xlink:href="#mfid146"/>
							</g>
						</g>
					</mask>
					<defs>
						<path id="mfid159" d="M0.19303,-0.0096667 C0.19303,0.041793 0.13967,0.083509 0.073854,0.083509 C0.0080346,0.083509 -0.045323,0.041793 -0.045323,-0.0096667 C-0.045323,-0.061126 0.0080346,-0.10284 0.073854,-0.10284 C0.13967,-0.10284 0.19303,-0.061126 0.19303,-0.0096667 Z"/>
					</defs>
					<radialGradient id="mfid160">
						<stop offset="0" stop-color="#c95757"/>
						<stop offset="0.70711" stop-color="#ffffff"/>
						<stop offset="1" stop-color="#ffffff"/>
					</radialGradient>
					<g mask="url(#mfid158)">
						<g text-rendering="geometricPrecision">
							<g transform="matrix(96, 0, 0, -96, 9.305, 9.626)">
								<g fill="white">
									<mask id="mfid161" x="-0.010417" y="-0.0096667" width="0.084271" height="0.065885" maskUnits="userSpaceOnUse">
										<rect x="-0.010417" y="-0.0096667" width="0.084271" height="0.065885" stroke="none"/>
									</mask>
									<use xlink:href="#mfid159" stroke="none" mask="url(#mfid161)" fill="url(#mfid160)"/>
									<defs>
										<path id="mfid162" d="M9.03,8.285 C9.03,10.109 10.514,11.594 12.339,11.594 C14.162,11.594 15.646,10.11 15.646,8.285 C15.646,7.403 15.301,6.573 14.676,5.948 C14.051,5.324 13.221,4.979 12.339,4.979 C10.515,4.979 9.03,6.463 9.03,8.285 Z M9.53,8.285 C9.53,6.738 10.79,5.479 12.339,5.479 C13.088,5.479 13.792,5.771 14.322,6.301 C14.853,6.831 15.145,7.536 15.145,8.284 C15.145,9.833 13.886,11.093 12.338,11.093 C10.79,11.094 9.53,9.834 9.53,8.285 Z"/>
									</defs>
								</g>
							</g>
						</g>
					</g>
					<g>
						<g text-rendering="geometricPrecision">
							<g fill="#ffcc00">
								<use xlink:href="#mfid162" fill-rule="evenodd" stroke="none"/>
							</g>
						</g>
					</g>
					<!-- GetDC -->
					<!-- Released DC -->
					<defs>
						<path id="mfid163" d="M13.824,14.768 C11.678,14.831 11.43,16.493 8.97,15.61 C6.507,14.727 4.116,16.274 4.116,16.274 C3.503,15.022 2.577,14.2 1.625,13.651 L1.625,19.737 L19.474,19.737 L19.474,17.36 C16.433,17.624 15.724,14.712 13.824,14.768 Z"/>
					</defs>
					<mask id="mfid164">
						<use xlink:href="#mfid163" fill-rule="evenodd" fill="white" stroke="none"/>
					</mask>
					<mask id="mfid165" fill="white" stroke="none">
						<g>
							<g mask="url(#mfid164)">
								<use xlink:href="#mfid146"/>
							</g>
						</g>
					</mask>
					<linearGradient id="mfid166" gradientUnits="userSpaceOnUse" x1="-0.010417" y1="0.031698" x2="0.19634" y2="0.031698" spreadMethod="repeat" gradientTransform="matrix(-0.0000007207, 0.40738, -2.4547, -0.00000011057, 0.17077, -0.0061732)">
						<stop offset="0" stop-color="#1b4896"/>
						<stop offset="1" stop-color="#b5dceb"/>
					</linearGradient>
					<g mask="url(#mfid165)">
						<g text-rendering="geometricPrecision">
							<g transform="matrix(96, 0, 0, -96, 1.625, 19.737)">
								<g fill="url(#mfid166)">
									<rect x="-0.010417" y="-0.010417" width="0.20676" height="0.084229" stroke="none"/>
									<defs>
										<path id="mfid167" d="M16.98,17.55 C16.98,17.55 14.59,16.003 12.127,16.887 C9.664,17.77 8.809,19.545 6.665,19.483 C4.766,19.427 4.664,18.901 1.624,18.637 L1.624,21.591 C4.664,21.856 4.766,22.381 6.665,22.437 C8.81,22.5 9.665,20.723 12.128,19.84 C14.591,18.957 16.981,20.504 16.981,20.504 C17.596,19.253 18.521,18.43 19.472,17.881 L19.472,14.926 C18.521,15.477 17.596,16.299 16.98,17.55 Z"/>
									</defs>
								</g>
							</g>
						</g>
					</g>
					<g>
						<g text-rendering="geometricPrecision">
							<g fill="#499749">
								<use xlink:href="#mfid167" fill-rule="evenodd" stroke="none"/>
							</g>
						</g>
					</g>
					<!-- GetDC -->
					<!-- Released DC -->
					<defs>
						<path id="mfid168" d="M16.98,20.504 C16.98,20.504 14.59,18.957 12.127,19.84 C9.664,20.723 8.81,22.5 6.666,22.437 C4.767,22.381 4.665,21.856 1.625,21.591 L1.625,23.17 L19.472,23.17 L19.472,17.881 C18.521,18.43 17.596,19.253 16.98,20.504 Z"/>
					</defs>
					<mask id="mfid169">
						<use xlink:href="#mfid168" fill-rule="evenodd" fill="white" stroke="none"/>
					</mask>
					<mask id="mfid170" fill="white" stroke="none">
						<g>
							<g mask="url(#mfid169)">
								<use xlink:href="#mfid146"/>
							</g>
						</g>
					</mask>
					<linearGradient id="mfid171" gradientUnits="userSpaceOnUse" x1="-0.010417" y1="0.027547" x2="0.19632" y2="0.027547" spreadMethod="repeat">
						<stop offset="0" stop-color="#42bc33"/>
						<stop offset="1" stop-color="#bde1a1"/>
					</linearGradient>
					<g mask="url(#mfid170)">
						<g text-rendering="geometricPrecision">
							<g transform="matrix(96, 0, 0, -96, 1.625, 23.17)">
								<g fill="url(#mfid171)">
									<rect x="-0.010417" y="-0.010417" width="0.20674" height="0.075927" stroke="none"/>
								</g>
							</g>
						</g>
					</g>
					<!-- GetDC -->
					<!-- Released DC -->
					<defs>
						<path id="mfid172" d="M7.816,10.758 C7.816,10.758 10.763,12.42 12.149,11.863 C13.34,11.384 17.18,11.416 17.042,10.779 C16.571,8.607 13.594,10.302 12.038,8.872 C10.483,7.442 7.706,8.287 7.706,8.287 C7.706,8.287 8.699,7.443 5.81,5.688 C4.396,4.829 2.598,5.426 1.625,6.081 L1.625,11.202 C1.903,11.293 2.203,11.381 2.538,11.473 C4.927,12.123 7.816,10.758 7.816,10.758 Z"/>
					</defs>
					<mask id="mfid173">
						<use xlink:href="#mfid172" fill-rule="evenodd" fill="white" stroke="none"/>
					</mask>
					<mask id="mfid174" fill="white" stroke="none">
						<g>
							<g mask="url(#mfid173)">
								<use xlink:href="#mfid146"/>
							</g>
						</g>
					</mask>
					<linearGradient id="mfid175" gradientUnits="userSpaceOnUse" x1="-0.010417" y1="0.039544" x2="0.17101" y2="0.039544" spreadMethod="repeat" gradientTransform="matrix(-0.00000082133, 0.49929, -2.0028, -0.000000051406, 0.1595, -0.00054704)">
						<stop offset="0" stop-color="#23b3de"/>
						<stop offset="1" stop-color="#ffffff"/>
					</linearGradient>
					<g mask="url(#mfid174)">
						<g text-rendering="geometricPrecision">
							<g transform="matrix(96, 0, 0, -96, 1.625, 12.42)">
								<g fill="url(#mfid175)">
									<rect x="-0.010417" y="-0.005748" width="0.18143" height="0.090585" stroke="none"/>
									<defs>
										<path id="mfid176" d="M1.625,1.625 L1.625,23.17 L19.472,23.17 L19.472,1.625 L1.625,1.625 Z M9.004,8.061 C8.995,8.062 8.986,8.062 8.978,8.063 C8.986,8.062 8.995,8.062 9.004,8.061 Z"/>
									</defs>
								</g>
							</g>
						</g>
					</g>
					<g>
						<g text-rendering="geometricPrecision">
							<g fill="url(#mfid175)" stroke-width="0.25" stroke="#808284" stroke-miterlimit="2">
								<use xlink:href="#mfid176" fill="none"/>
							</g>
						</g>
					</g>
				</svg>
				<rect x="0" y="569.237" width="21.5991" height="26.0387" class="st2"/>
			</g>
			<g id="shape134-164">
				<title>Sheet.134</title>
				<rect x="0" y="569.237" width="26.0387" height="26.0387" class="st7"/>
			</g>
			<g id="group135-166" transform="translate(23.4348,-8.33239)">
				<title>Sheet.135</title>
				<g id="shape136-167">
					<title>Sheet.136</title>
					<rect x="0" y="585.902" width="9.37394" height="9.37394" class="st8"/>
				</g>
				<g id="shape137-169" transform="translate(0.504726,-0.504197)">
					<title>Sheet.137</title>
					<rect x="0" y="586.91" width="8.36555" height="8.36555" class="st9"/>
				</g>
				<g id="shape138-172" transform="translate(1.72263,-4.18595)">
					<title>Sheet.138</title>
					<rect x="0" y="594.274" width="5.92762" height="1.00205" class="st10"/>
				</g>
			</g>
			<g id="group139-175" transform="translate(23.4348,-8.33239)">
				<title>Sheet.139</title>
				<g id="shape140-176">
					<title>Sheet.140</title>
					<rect x="0" y="585.902" width="9.37394" height="9.37394" class="st8"/>
				</g>
				<g id="shape141-178" transform="translate(0.504726,-0.503668)">
					<title>Sheet.141</title>
					<rect x="0" y="586.91" width="8.36555" height="8.36555" class="st9"/>
				</g>
				<g id="shape142-181" transform="translate(4.18595,-1.72263)">
					<title>Sheet.142</title>
					<rect x="0" y="589.347" width="1.00205" height="5.92868" class="st11"/>
				</g>
				<g id="shape143-183" transform="translate(1.72263,-4.18595)">
					<title>Sheet.143</title>
					<rect x="0" y="594.274" width="5.92762" height="1.00205" class="st11"/>
				</g>
			</g>
			<g id="shape144-185" transform="translate(-3.25484,3.25484)">
				<title>Sheet.144</title>
			</g>
		</g>
		<g id="shape145-188" transform="translate(378.388,-26.8895)">
			<title>Sheet.145</title>
			<desc>xxx.png</desc>
			<rect x="0" y="575.276" width="93.6179" height="20" class="st2"/>
			<text x="27.65" y="588.88" class="st5">xxx.png</text>		</g>
		<g id="shape146-191" transform="translate(173.929,-518.583)">
			<title>Sheet.146</title>
			<desc>UML/</desc>
			<rect x="0" y="575.276" width="80.1634" height="20" class="st2"/>
			<text x="26.26" y="588.88" class="st3">UML/</text>		</g>
	</g>
</svg>
